<svg width="342" height="226" viewBox="0 0 342 226" fill="none" xmlns="http://www.w3.org/2000/svg">
<g clip-path="url(#clip0_306_147)">
<g opacity="0.1">
<path d="M251.449 222.666C255.1 222.666 258.059 218.259 258.059 212.823C258.059 207.386 255.1 202.979 251.449 202.979C247.799 202.979 244.84 207.386 244.84 212.823C244.84 218.259 247.799 222.666 251.449 222.666Z" fill="#3F3D56"/>
<path d="M256.68 170.71C257.606 168.881 258.086 166.804 258.071 164.693C258.071 159.245 255.112 154.849 251.461 154.849C247.811 154.849 244.855 159.255 244.855 164.693C244.836 166.802 245.312 168.879 246.234 170.71C245.33 172.547 244.855 174.618 244.855 176.725C244.855 178.831 245.33 180.902 246.234 182.739C245.33 184.578 244.855 186.649 244.855 188.756C244.855 190.863 245.33 192.934 246.234 194.773C245.312 196.603 244.836 198.68 244.855 200.789C244.855 206.237 247.814 210.633 251.461 210.633C255.109 210.633 258.071 206.227 258.071 200.789C258.089 198.68 257.613 196.603 256.692 194.773C257.596 192.934 258.071 190.863 258.071 188.756C258.071 186.649 257.596 184.578 256.692 182.739C257.596 180.902 258.071 178.831 258.071 176.725C258.071 174.618 257.596 172.547 256.692 170.71H256.68Z" fill="#3F3D56"/>
<path d="M251.449 162.507C255.1 162.507 258.059 158.1 258.059 152.663C258.059 147.227 255.1 142.819 251.449 142.819C247.799 142.819 244.84 147.227 244.84 152.663C244.84 158.1 247.799 162.507 251.449 162.507Z" fill="#3F3D56"/>
<path d="M251.449 150.474C255.1 150.474 258.059 146.066 258.059 140.63C258.059 135.193 255.1 130.786 251.449 130.786C247.799 130.786 244.84 135.193 244.84 140.63C244.84 146.066 247.799 150.474 251.449 150.474Z" fill="#3F3D56"/>
<path d="M276.188 58.2902C277.09 56.9815 277.912 55.6038 278.648 54.1667L261.293 50.9218L280.075 51.0818C281.875 46.6208 282.856 41.789 282.959 36.8816C283.062 31.9743 282.284 27.0946 280.673 22.5411L255.474 37.4073L278.717 17.9784C276.538 13.7007 273.61 9.97892 270.113 7.04484C266.616 4.11076 262.626 2.02714 258.391 0.923689C254.157 -0.179763 249.767 -0.279432 245.497 0.630888C241.227 1.54121 237.167 3.44203 233.57 6.21503C229.973 8.98804 226.917 12.5739 224.59 16.7493C222.264 20.9247 220.718 25.6004 220.048 30.4853C219.378 35.3702 219.599 40.3597 220.697 45.1432C221.795 49.9267 223.746 54.4019 226.429 58.2902C225.023 60.3259 223.813 62.528 222.821 64.8584L245.36 78.1856L221.328 68.9921C219.637 74.6668 219.216 80.7319 220.104 86.6382C220.992 92.5445 223.161 98.1054 226.414 102.817C222.742 108.131 220.457 114.513 219.822 121.234C219.186 127.955 220.226 134.744 222.821 140.825C225.416 146.906 229.463 152.033 234.498 155.62C239.533 159.206 245.353 161.109 251.294 161.109C257.234 161.109 263.055 159.206 268.09 155.62C273.125 152.033 277.171 146.906 279.767 140.825C282.362 134.744 283.401 127.955 282.766 121.234C282.13 114.513 279.846 108.131 276.173 102.817C280.562 96.4683 282.948 88.6248 282.948 80.547C282.948 72.4691 280.562 64.6256 276.173 58.2766L276.188 58.2902Z" fill="white"/>
<path opacity="0.1" d="M219.655 80.5623C219.644 88.6417 222.031 96.4885 226.429 102.831C222.757 108.144 220.472 114.526 219.837 121.248C219.201 127.969 220.241 134.758 222.836 140.839C225.431 146.919 229.478 152.046 234.513 155.633C239.548 159.22 245.368 161.122 251.309 161.122C257.249 161.122 263.07 159.22 268.105 155.633C273.14 152.046 277.186 146.919 279.782 140.839C282.377 134.758 283.416 127.969 282.781 121.248C282.145 114.526 279.861 108.144 276.188 102.831C280.431 96.702 219.655 76.5171 219.655 80.5623Z" fill="black"/>
</g>
<g opacity="0.1">
<path d="M66.0691 212.138C68.2901 212.138 70.0906 209.455 70.0906 206.146C70.0906 202.836 68.2901 200.153 66.0691 200.153C63.8482 200.153 62.0477 202.836 62.0477 206.146C62.0477 209.455 63.8482 212.138 66.0691 212.138Z" fill="#3F3D56"/>
<path d="M69.2678 180.509C69.8291 179.395 70.1194 178.13 70.1086 176.845C70.1086 173.536 68.3133 170.853 66.0842 170.853C63.855 170.853 62.0627 173.536 62.0627 176.845C62.051 178.13 62.3402 179.394 62.9005 180.509C62.3513 181.629 62.0629 182.889 62.0629 184.171C62.0629 185.453 62.3513 186.714 62.9005 187.833C62.3513 188.953 62.0629 190.213 62.0629 191.495C62.0629 192.778 62.3513 194.038 62.9005 195.158C62.3398 196.271 62.0506 197.535 62.0627 198.818C62.0627 202.131 63.858 204.814 66.0842 204.814C68.3103 204.814 70.1086 202.131 70.1086 198.818C70.1198 197.534 69.8296 196.271 69.2678 195.158C69.8187 194.039 70.108 192.778 70.108 191.495C70.108 190.213 69.8187 188.952 69.2678 187.833C69.8187 186.715 70.108 185.454 70.108 184.171C70.108 182.889 69.8187 181.628 69.2678 180.509Z" fill="#3F3D56"/>
<path d="M66.0691 175.514C68.2901 175.514 70.0906 172.831 70.0906 169.521C70.0906 166.212 68.2901 163.529 66.0691 163.529C63.8482 163.529 62.0477 166.212 62.0477 169.521C62.0477 172.831 63.8482 175.514 66.0691 175.514Z" fill="#3F3D56"/>
<path d="M66.0691 168.19C68.2901 168.19 70.0906 165.507 70.0906 162.197C70.0906 158.887 68.2901 156.204 66.0691 156.204C63.8482 156.204 62.0477 158.887 62.0477 162.197C62.0477 165.507 63.8482 168.19 66.0691 168.19Z" fill="#3F3D56"/>
<path d="M51.0158 112.069C50.4666 111.273 49.9667 110.434 49.5197 109.559L60.0909 107.584L48.658 107.683C47.5635 104.969 46.9663 102.029 46.9031 99.0435C46.8398 96.0579 47.3117 93.0889 48.29 90.3176L63.6186 99.3783L49.4749 87.5289C50.8014 84.9265 52.5844 82.6626 54.7129 80.8781C56.8413 79.0935 59.2697 77.8265 61.8469 77.1557C64.4241 76.485 67.0951 76.425 69.6935 76.9794C72.292 77.5338 74.7625 78.6908 76.9512 80.3783C79.1399 82.0659 81 84.2479 82.4158 86.7887C83.8317 89.3294 84.7729 92.1746 85.181 95.1471C85.5891 98.1196 85.4554 101.156 84.788 104.067C84.1207 106.978 82.9341 109.702 81.3021 112.069C82.1582 113.306 82.8946 114.645 83.4983 116.063L69.7764 124.18L84.4079 118.593C85.4355 122.049 85.6896 125.741 85.1473 129.337C84.6051 132.933 83.2834 136.318 81.3021 139.186C83.5376 142.421 84.9281 146.306 85.3148 150.397C85.7014 154.489 85.0686 158.622 83.4887 162.323C81.9087 166.025 79.4454 169.145 76.3803 171.329C73.3152 173.512 69.7721 174.67 66.156 174.67C62.5399 174.67 58.9967 173.512 55.9316 171.329C52.8666 169.145 50.4032 166.025 48.8233 162.323C47.2433 158.622 46.6105 154.489 46.9971 150.397C47.3838 146.306 48.7744 142.421 51.0098 139.186C48.3386 135.32 46.8864 130.545 46.8864 125.627C46.8864 120.71 48.3386 115.935 51.0098 112.069H51.0158Z" fill="white"/>
<path opacity="0.1" d="M85.4253 125.627C85.4317 130.546 83.9789 135.324 81.3022 139.186C83.5376 142.421 84.9282 146.306 85.3148 150.397C85.7015 154.489 85.0687 158.622 83.4887 162.323C81.9088 166.025 79.4454 169.145 76.3803 171.329C73.3153 173.512 69.7721 174.67 66.156 174.67C62.5399 174.67 58.9968 173.512 55.9317 171.329C52.8666 169.145 50.4033 166.025 48.8233 162.323C47.2434 158.622 46.6105 154.489 46.9972 150.397C47.3839 146.306 48.7744 142.421 51.0099 139.186C48.4277 135.471 85.4253 123.166 85.4253 125.627Z" fill="black"/>
</g>
<g opacity="0.1">
<path d="M156.73 217.355C159.703 217.355 162.113 213.765 162.113 209.336C162.113 204.907 159.703 201.317 156.73 201.317C153.758 201.317 151.348 204.907 151.348 209.336C151.348 213.765 153.758 217.355 156.73 217.355Z" fill="#3F3D56"/>
<path d="M160.991 175.027C161.741 173.535 162.129 171.843 162.113 170.124C162.113 165.697 159.72 162.105 156.727 162.105C153.735 162.105 151.342 165.697 151.342 170.124C151.326 171.843 151.714 173.536 152.467 175.027C151.729 176.524 151.342 178.212 151.342 179.929C151.342 181.645 151.729 183.333 152.467 184.83C151.729 186.327 151.342 188.014 151.342 189.73C151.342 191.446 151.729 193.133 152.467 194.63C151.714 196.121 151.326 197.814 151.342 199.533C151.342 203.959 153.753 207.552 156.727 207.552C159.702 207.552 162.113 203.959 162.113 199.533C162.129 197.814 161.741 196.122 160.991 194.63C161.727 193.132 162.114 191.445 162.114 189.73C162.114 188.014 161.727 186.327 160.991 184.83C161.727 183.332 162.113 181.645 162.113 179.929C162.113 178.213 161.727 176.525 160.991 175.027Z" fill="#3F3D56"/>
<path d="M156.73 168.343C159.703 168.343 162.113 164.753 162.113 160.324C162.113 155.896 159.703 152.306 156.73 152.306C153.758 152.306 151.348 155.896 151.348 160.324C151.348 164.753 153.758 168.343 156.73 168.343Z" fill="#3F3D56"/>
<path d="M156.73 158.54C159.703 158.54 162.113 154.95 162.113 150.521C162.113 146.093 159.703 142.503 156.73 142.503C153.758 142.503 151.348 146.093 151.348 150.521C151.348 154.95 153.758 158.54 156.73 158.54Z" fill="#3F3D56"/>
<path d="M136.591 83.4429C135.855 82.378 135.185 81.2561 134.586 80.0856L148.73 77.4433L133.434 77.5727C131.966 73.9388 131.165 70.0024 131.081 66.0042C130.996 62.0061 131.628 58.0303 132.94 54.3199L153.466 66.4349L134.535 50.6017C136.304 47.1039 138.687 44.0589 141.537 41.6567C144.386 39.2546 147.64 37.5471 151.096 36.6408C154.552 35.7346 158.134 35.6491 161.62 36.3897C165.106 37.1303 168.421 38.681 171.356 40.9451C174.292 43.2092 176.785 46.1378 178.681 49.5481C180.577 52.9584 181.835 56.7771 182.375 60.7654C182.916 64.7538 182.728 68.8261 181.823 72.728C180.918 76.6299 179.316 80.2775 177.116 83.4429C178.261 85.102 179.246 86.8965 180.054 88.7956L161.694 99.6507L181.272 92.1597C182.647 96.784 182.987 101.726 182.262 106.537C181.536 111.349 179.767 115.879 177.116 119.716C180.107 124.045 181.968 129.244 182.486 134.719C183.003 140.194 182.156 145.725 180.042 150.678C177.927 155.631 174.631 159.808 170.529 162.73C166.428 165.651 161.686 167.201 156.847 167.201C152.008 167.201 147.267 165.651 143.165 162.73C139.063 159.808 135.767 155.631 133.653 150.678C131.538 145.725 130.691 140.194 131.209 134.719C131.726 129.244 133.587 124.045 136.579 119.716C133.004 114.543 131.061 108.153 131.061 101.573C131.061 94.9922 133.004 88.6024 136.579 83.4293L136.591 83.4429Z" fill="white"/>
<path opacity="0.1" d="M182.633 101.588C182.642 108.17 180.698 114.563 177.116 119.73C180.107 124.058 181.968 129.258 182.486 134.733C183.003 140.208 182.156 145.738 180.042 150.692C177.927 155.645 174.631 159.821 170.529 162.743C166.428 165.665 161.686 167.215 156.847 167.215C152.008 167.215 147.267 165.665 143.165 162.743C139.063 159.821 135.767 155.645 133.653 150.692C131.538 145.738 130.691 140.208 131.209 134.733C131.726 129.258 133.587 124.058 136.579 119.73C133.123 114.738 182.633 98.2921 182.633 101.588Z" fill="black"/>
</g>
<path d="M342 216.633C342 218.972 326.974 221.11 302.13 222.762C297.612 223.058 292.771 223.341 287.636 223.606C283.2 223.833 278.55 224.048 273.687 224.25C268.975 224.44 264.083 224.618 259.01 224.781C242.991 225.302 225.28 225.676 206.466 225.864C201.9 225.911 197.273 225.948 192.585 225.973C187.702 225.998 182.763 226.009 177.768 226.007C87.0649 226.007 13.5394 221.815 13.5394 216.643C13.5394 211.471 87.0649 207.279 177.768 207.279C216.818 207.279 252.679 208.059 280.865 209.353L283.947 209.496H283.965C319.469 211.209 342 213.786 342 216.633Z" fill="#3F3D56"/>
<path opacity="0.15" d="M342 216.633C342 218.972 326.974 221.11 302.13 222.762C297.612 223.058 292.771 223.341 287.636 223.606C283.2 223.833 278.55 224.048 273.687 224.25C268.975 224.44 264.083 224.618 259.01 224.781C242.991 225.302 225.28 225.676 206.466 225.864C201.9 225.911 197.273 225.948 192.585 225.973C187.702 225.998 182.763 226.009 177.768 226.007C87.0649 226.007 13.5394 221.815 13.5394 216.643C13.5394 211.471 87.0649 207.279 177.768 207.279C216.818 207.279 252.679 208.059 280.865 209.353L283.947 209.496H283.965C319.469 211.209 342 213.786 342 216.633Z" fill="black"/>
<path d="M328.461 214.985C328.461 216.939 313.434 218.73 288.591 220.092C284.075 220.341 279.231 220.576 274.1 220.797C269.661 220.988 265.012 221.167 260.15 221.335C255.439 221.494 250.547 221.643 245.474 221.781C229.451 222.217 211.741 222.53 192.926 222.687C188.364 222.725 183.737 222.755 179.046 222.775C174.163 222.796 169.225 222.806 164.232 222.806C73.5285 222.806 0 219.302 0 214.975C0 210.647 73.5285 207.143 164.232 207.143C203.279 207.143 239.14 207.793 267.326 208.876L270.407 208.995H270.428C305.945 210.449 328.461 212.591 328.461 214.985Z" fill="#3F3D56"/>
<path d="M42.4164 143.844L38.2932 129.478L137.033 128.249L141.079 142.472L42.4164 143.844Z" fill="#3F3D56"/>
<path opacity="0.15" d="M42.4164 143.844L38.2932 129.478L137.033 128.249L141.079 142.472L42.4164 143.844Z" fill="black"/>
<path d="M35.8337 143.844L31.7106 129.478L130.451 128.249L134.496 142.472L35.8337 143.844Z" fill="#3F3D56"/>
<path d="M204.395 121.77C194.186 121.77 186.14 117.158 180.258 107.935C174.375 98.7121 171.434 87.5391 171.434 74.4162C171.434 61.2048 174.278 50.0546 179.967 40.9655C185.656 31.8765 193.681 27.3365 204.042 27.3455C215.029 27.3455 223.307 32.1341 228.877 41.7112C234.446 51.2884 237.232 62.3728 237.234 74.9644C237.234 87.4653 234.351 98.3931 228.586 107.748C222.822 117.102 214.758 121.776 204.395 121.77ZM204.694 111.395C211.411 111.395 216.43 108.063 219.754 101.401C223.077 94.7384 224.739 86.3394 224.739 76.2039C224.739 64.922 223.038 55.6842 219.637 48.4906C216.236 41.2969 211.02 37.699 203.988 37.6967C190.623 37.6967 183.941 49.7777 183.941 73.9395C183.941 98.9118 190.857 111.397 204.688 111.395H204.694ZM208.057 210.749H193.291L289.961 29.1945H304.449L208.057 210.749ZM293.578 212.612C283.216 212.612 275.137 207.958 269.342 198.651C263.547 189.344 260.638 178.17 260.614 165.129C260.614 152.006 263.439 140.9 269.088 131.811C274.737 122.722 282.782 118.182 293.222 118.191C304.132 118.191 312.352 122.979 317.883 132.557C323.415 142.134 326.182 153.217 326.184 165.806C326.184 178.226 323.32 189.133 317.593 198.528C311.866 207.924 303.859 212.618 293.572 212.612H293.578ZM293.752 201.971C300.436 201.971 305.429 198.696 308.731 192.147C312.032 185.599 313.682 177.234 313.682 167.053C313.682 156.157 312.012 147.019 308.671 139.639C305.329 132.259 300.124 128.564 293.055 128.552C279.612 128.552 272.891 140.633 272.891 164.795C272.887 189.581 279.839 201.973 293.746 201.971H293.752Z" fill="#3F3D56"/>
<path d="M204.395 121.77C194.186 121.77 186.14 117.158 180.258 107.935C174.375 98.7121 171.434 87.5391 171.434 74.4162C171.434 61.2048 174.278 50.0546 179.967 40.9655C185.656 31.8765 193.681 27.3365 204.042 27.3455C215.029 27.3455 223.307 32.1341 228.877 41.7112C234.446 51.2884 237.232 62.3728 237.234 74.9644C237.234 87.4653 234.351 98.3931 228.586 107.748C222.822 117.102 214.758 121.776 204.395 121.77ZM204.694 111.395C211.411 111.395 216.43 108.063 219.754 101.401C223.077 94.7384 224.739 86.3394 224.739 76.2039C224.739 64.922 223.038 55.6842 219.637 48.4906C216.236 41.2969 211.02 37.699 203.988 37.6967C190.623 37.6967 183.941 49.7777 183.941 73.9395C183.941 98.9118 190.857 111.397 204.688 111.395H204.694ZM208.057 210.749H193.291L289.961 29.1945H304.449L208.057 210.749ZM293.578 212.612C283.216 212.612 275.137 207.958 269.342 198.651C263.547 189.344 260.638 178.17 260.614 165.129C260.614 152.006 263.439 140.9 269.088 131.811C274.737 122.722 282.782 118.182 293.222 118.191C304.132 118.191 312.352 122.979 317.883 132.557C323.415 142.134 326.182 153.217 326.184 165.806C326.184 178.226 323.32 189.133 317.593 198.528C311.866 207.924 303.859 212.618 293.572 212.612H293.578ZM293.752 201.971C300.436 201.971 305.429 198.696 308.731 192.147C312.032 185.599 313.682 177.234 313.682 167.053C313.682 156.157 312.012 147.019 308.671 139.639C305.329 132.259 300.124 128.564 293.055 128.552C279.612 128.552 272.891 140.633 272.891 164.795C272.887 189.581 279.839 201.973 293.746 201.971H293.752Z" fill="#3F3D56"/>
<path opacity="0.15" d="M204.395 121.77C194.186 121.77 186.14 117.158 180.258 107.935C174.375 98.7121 171.434 87.5391 171.434 74.4162C171.434 61.2048 174.278 50.0546 179.967 40.9655C185.656 31.8765 193.681 27.3365 204.042 27.3455C215.029 27.3455 223.307 32.1341 228.877 41.7112C234.446 51.2884 237.232 62.3728 237.234 74.9644C237.234 87.4653 234.351 98.3931 228.586 107.748C222.822 117.102 214.758 121.776 204.395 121.77ZM204.694 111.395C211.411 111.395 216.43 108.063 219.754 101.401C223.077 94.7384 224.739 86.3394 224.739 76.2039C224.739 64.922 223.038 55.6842 219.637 48.4906C216.236 41.2969 211.02 37.699 203.988 37.6967C190.623 37.6967 183.941 49.7777 183.941 73.9395C183.941 98.9118 190.857 111.397 204.688 111.395H204.694ZM208.057 210.749H193.291L289.961 29.1945H304.449L208.057 210.749ZM293.578 212.612C283.216 212.612 275.137 207.958 269.342 198.651C263.547 189.344 260.638 178.17 260.614 165.129C260.614 152.006 263.439 140.9 269.088 131.811C274.737 122.722 282.782 118.182 293.222 118.191C304.132 118.191 312.352 122.979 317.883 132.557C323.415 142.134 326.182 153.217 326.184 165.806C326.184 178.226 323.32 189.133 317.593 198.528C311.866 207.924 303.859 212.618 293.572 212.612H293.578ZM293.752 201.971C300.436 201.971 305.429 198.696 308.731 192.147C312.032 185.599 313.682 177.234 313.682 167.053C313.682 156.157 312.012 147.019 308.671 139.639C305.329 132.259 300.124 128.564 293.055 128.552C279.612 128.552 272.891 140.633 272.891 164.795C272.887 189.581 279.839 201.973 293.746 201.971H293.752Z" fill="black"/>
<path d="M195.12 121.77C184.91 121.77 176.865 117.158 170.982 107.935C165.1 98.7121 162.158 87.5391 162.158 74.4162C162.158 61.2048 165.003 50.0546 170.692 40.9655C176.381 31.8765 184.406 27.3365 194.767 27.3455C205.754 27.3455 214.032 32.1341 219.601 41.7112C225.17 51.2884 227.956 62.3728 227.958 74.9644C227.958 87.4653 225.076 98.3931 219.311 107.748C213.546 117.102 205.482 121.776 195.12 121.77ZM195.419 111.395C202.135 111.395 207.155 108.063 210.478 101.401C213.801 94.7384 215.463 86.3394 215.463 76.2039C215.463 64.922 213.763 55.6842 210.361 48.4906C206.96 41.2969 201.744 37.699 194.713 37.6967C181.348 37.6967 174.665 49.7777 174.665 73.9395C174.665 98.9118 181.581 111.397 195.413 111.395H195.419ZM198.782 210.749H184.016L280.685 29.1945H295.173L198.782 210.749ZM284.303 212.612C273.94 212.612 265.861 207.958 260.067 198.651C254.272 189.344 251.363 178.17 251.339 165.129C251.339 152.006 254.163 140.9 259.812 131.811C265.461 122.722 273.506 118.182 283.947 118.191C294.856 118.191 303.076 122.979 308.608 132.557C314.139 142.134 316.906 153.217 316.908 165.806C316.908 178.226 314.045 189.133 308.318 198.528C302.591 207.924 294.584 212.618 284.297 212.612H284.303ZM284.476 201.971C291.161 201.971 296.154 198.696 299.455 192.147C302.756 185.599 304.407 177.234 304.407 167.053C304.407 156.157 302.736 147.019 299.395 139.639C296.054 132.259 290.847 128.564 283.773 128.552C270.331 128.552 263.609 140.633 263.609 164.795C263.609 189.581 270.563 201.973 284.47 201.971H284.476Z" fill="#3F3D56"/>
<path d="M227.422 215.305C228.655 212.703 227.255 209.516 225.645 207.194C224.035 204.872 222.073 202.461 222.114 199.502C222.174 195.256 226.136 192.747 229.296 190.493C231.645 188.822 233.813 186.84 235.753 184.588C236.565 183.721 237.236 182.697 237.736 181.565C238.392 179.903 238.371 178.013 238.335 176.195C238.197 170.13 237.934 164.073 237.545 158.026" stroke="#3F3D56" stroke-width="4" stroke-miterlimit="10"/>
<path d="M243.565 157.692C243.52 156.583 243.23 155.504 242.723 154.555C242.215 153.607 241.505 152.819 240.66 152.265L239.355 155.2L239.394 151.645C238.772 151.438 238.124 151.35 237.476 151.383C236.326 151.444 235.217 151.892 234.291 152.671C233.364 153.449 232.661 154.522 232.271 155.755C231.88 156.988 231.82 158.325 232.097 159.597C232.375 160.869 232.977 162.019 233.828 162.901C234.68 163.783 235.742 164.358 236.881 164.554C238.02 164.749 239.184 164.556 240.226 163.998C241.268 163.441 242.142 162.544 242.736 161.422C243.33 160.299 243.619 159.001 243.565 157.692Z" fill="white"/>
<path d="M233.182 202.55C232.571 203.901 231.571 204.971 230.349 205.583C229.126 206.194 227.756 206.308 226.469 205.906C225.181 205.504 224.054 204.611 223.277 203.376C222.499 202.141 222.119 200.639 222.199 199.123C222.279 197.606 222.814 196.167 223.716 195.046C224.618 193.926 225.83 193.192 227.151 192.969C228.471 192.745 229.819 193.045 230.969 193.818C232.118 194.591 232.999 195.79 233.464 197.214L229.825 200.582L233.835 199.519C233.833 200.574 233.609 201.613 233.182 202.55Z" fill="white"/>
<path d="M230.307 189.676C229.543 189.716 228.78 189.585 228.06 189.29C227.341 188.995 226.679 188.542 226.114 187.956C225.549 187.37 225.09 186.663 224.765 185.876C224.439 185.088 224.254 184.235 224.218 183.366C224.173 182.328 224.345 181.293 224.721 180.346C225.068 179.461 225.582 178.673 226.227 178.038C226.871 177.404 227.629 176.937 228.449 176.672L228.416 179.396L229.735 176.427C231.278 176.345 232.786 176.963 233.928 178.146C235.07 179.33 235.752 180.981 235.824 182.736C235.897 184.492 235.353 186.208 234.313 187.507C233.273 188.807 231.823 189.583 230.28 189.665L230.307 189.676Z" fill="white"/>
<path d="M244.442 178.974C243.669 179.032 242.893 178.914 242.161 178.628C241.428 178.341 240.754 177.891 240.176 177.304C239.598 176.717 239.129 176.004 238.796 175.208C238.463 174.413 238.273 173.549 238.236 172.669C238.2 171.788 238.319 170.908 238.585 170.08C238.851 169.252 239.26 168.493 239.787 167.847C240.314 167.201 240.949 166.682 241.655 166.318C242.361 165.955 243.123 165.756 243.897 165.732C244.985 165.671 246.066 165.963 247.015 166.573L245.986 169.78L248.104 167.468C249.241 168.647 249.92 170.292 249.992 172.041C250.019 172.654 249.968 173.269 249.843 173.866C249.553 175.27 248.869 176.528 247.894 177.45C246.92 178.372 245.708 178.907 244.442 178.974Z" fill="white"/>
<path opacity="0.1" d="M242.781 159.459C241.438 159.626 240.133 160.103 238.784 160.198C237.434 160.294 235.953 159.926 235.1 158.731C234.639 158.091 234.412 157.277 234.023 156.575C233.656 155.922 233.152 155.383 232.557 155.006C232.183 155.846 231.971 156.767 231.935 157.707C231.898 158.648 232.038 159.586 232.345 160.46C232.653 161.334 233.12 162.124 233.716 162.776C234.313 163.429 235.025 163.929 235.804 164.244C236.584 164.559 237.414 164.681 238.238 164.602C239.062 164.524 239.863 164.246 240.585 163.788C241.308 163.33 241.937 162.701 242.429 161.945C242.922 161.189 243.267 160.322 243.442 159.402C243.221 159.415 243.002 159.432 242.781 159.459Z" fill="black"/>
<path opacity="0.1" d="M244.442 178.974C243.438 179.026 242.44 178.782 241.544 178.265C240.648 177.749 239.884 176.978 239.327 176.027C238.77 175.076 238.438 173.977 238.364 172.838C238.289 171.698 238.475 170.555 238.903 169.521C239.365 169.877 239.762 170.33 240.073 170.856C240.489 171.568 240.741 172.392 241.228 173.045C242.126 174.261 243.685 174.656 245.088 174.584C246.491 174.513 247.85 174.057 249.25 173.903C249.445 173.883 249.642 173.869 249.849 173.863C249.559 175.268 248.875 176.528 247.899 177.451C246.923 178.373 245.709 178.908 244.442 178.974Z" fill="black"/>
<path opacity="0.1" d="M230.307 189.675C229.543 189.716 228.78 189.585 228.06 189.29C227.341 188.995 226.679 188.542 226.114 187.956C225.549 187.37 225.09 186.663 224.765 185.876C224.439 185.088 224.254 184.235 224.218 183.366C224.173 182.328 224.345 181.293 224.721 180.346C225.201 180.71 225.618 181.171 225.95 181.708C226.402 182.433 226.686 183.271 227.216 183.941C228.197 185.184 229.849 185.623 231.336 185.583C232.823 185.542 234.167 185.147 235.6 185.021C235.245 186.321 234.546 187.466 233.599 188.299C232.652 189.132 231.502 189.612 230.307 189.675Z" fill="black"/>
<path opacity="0.1" d="M233.182 202.55C232.505 204.065 231.341 205.226 229.933 205.792C228.524 206.359 226.978 206.287 225.614 205.593C224.25 204.898 223.174 203.634 222.606 202.061C222.039 200.488 222.025 198.727 222.566 197.143C223.046 197.502 223.476 197.939 223.844 198.44C224.397 199.209 224.762 200.081 225.403 200.796C226.6 202.124 228.515 202.672 230.226 202.723C231.214 202.733 232.201 202.675 233.182 202.55Z" fill="black"/>
<path d="M317.485 214.964C318.718 212.363 317.318 209.176 315.708 206.854C314.098 204.531 312.136 202.121 312.177 199.162C312.237 194.916 316.199 192.406 319.359 190.152C321.708 188.482 323.876 186.5 325.816 184.248C326.628 183.38 327.299 182.357 327.799 181.224C328.455 179.563 328.434 177.673 328.398 175.855C328.26 169.789 327.997 163.733 327.608 157.685" stroke="#3F3D56" stroke-width="4" stroke-miterlimit="10"/>
<path d="M333.628 157.352C333.583 156.242 333.293 155.164 332.786 154.215C332.278 153.267 331.568 152.479 330.723 151.924L329.418 154.859L329.457 151.305C328.835 151.098 328.187 151.009 327.539 151.042C326.389 151.104 325.28 151.552 324.354 152.33C323.427 153.108 322.724 154.182 322.334 155.415C321.943 156.648 321.883 157.985 322.16 159.256C322.438 160.528 323.04 161.678 323.891 162.561C324.743 163.443 325.805 164.018 326.944 164.213C328.083 164.409 329.247 164.215 330.289 163.658C331.331 163.1 332.205 162.204 332.799 161.081C333.393 159.959 333.682 158.661 333.628 157.352Z" fill="white"/>
<path d="M323.245 202.209C322.634 203.56 321.634 204.631 320.412 205.242C319.189 205.853 317.819 205.967 316.532 205.566C315.244 205.164 314.117 204.271 313.34 203.035C312.562 201.8 312.182 200.299 312.262 198.782C312.341 197.266 312.877 195.826 313.779 194.706C314.681 193.585 315.893 192.852 317.214 192.628C318.534 192.404 319.882 192.704 321.032 193.477C322.181 194.25 323.062 195.449 323.527 196.874L319.888 200.241L323.898 199.179C323.896 200.234 323.672 201.273 323.245 202.209Z" fill="white"/>
<path d="M320.37 189.335C319.606 189.376 318.843 189.245 318.123 188.95C317.404 188.655 316.743 188.201 316.177 187.615C315.612 187.03 315.153 186.323 314.828 185.535C314.503 184.748 314.317 183.895 314.281 183.025C314.236 181.988 314.408 180.952 314.784 180.005C315.132 179.12 315.646 178.332 316.29 177.698C316.934 177.063 317.692 176.597 318.512 176.331L318.479 179.055L319.799 176.086H319.813C320.577 176.045 321.341 176.176 322.06 176.471C322.78 176.766 323.441 177.22 324.006 177.806C324.572 178.392 325.03 179.099 325.355 179.886C325.681 180.674 325.867 181.526 325.902 182.396C325.938 183.265 325.823 184.134 325.564 184.952C325.305 185.771 324.906 186.523 324.391 187.167C323.876 187.81 323.255 188.332 322.563 188.702C321.871 189.073 321.122 189.284 320.358 189.325L320.37 189.335Z" fill="white"/>
<path d="M334.505 178.633C333.732 178.691 332.956 178.574 332.224 178.287C331.491 178 330.817 177.55 330.239 176.963C329.661 176.376 329.192 175.664 328.859 174.868C328.526 174.072 328.336 173.209 328.299 172.328C328.263 171.447 328.382 170.568 328.648 169.74C328.914 168.912 329.323 168.153 329.85 167.507C330.377 166.861 331.012 166.341 331.718 165.978C332.424 165.615 333.186 165.415 333.96 165.391C335.048 165.331 336.129 165.622 337.078 166.232L336.049 169.44L338.167 167.128C339.304 168.307 339.983 169.952 340.055 171.7C340.082 172.314 340.031 172.928 339.906 173.526C339.616 174.93 338.932 176.188 337.957 177.109C336.983 178.031 335.771 178.566 334.505 178.633Z" fill="white"/>
<path opacity="0.1" d="M332.844 159.119C331.501 159.286 330.196 159.763 328.847 159.858C327.497 159.953 326.016 159.586 325.163 158.39C324.703 157.75 324.475 156.936 324.086 156.235C323.719 155.582 323.215 155.043 322.62 154.665C322.246 155.505 322.034 156.426 321.998 157.367C321.961 158.307 322.101 159.246 322.408 160.12C322.716 160.994 323.183 161.784 323.78 162.436C324.376 163.088 325.088 163.589 325.867 163.904C326.647 164.218 327.477 164.341 328.301 164.262C329.125 164.183 329.926 163.906 330.648 163.447C331.371 162.989 332 162.361 332.492 161.605C332.985 160.848 333.33 159.981 333.505 159.061C333.284 159.075 333.066 159.092 332.844 159.119Z" fill="black"/>
<path opacity="0.1" d="M334.505 178.633C333.501 178.685 332.503 178.441 331.607 177.925C330.711 177.409 329.947 176.638 329.39 175.687C328.833 174.736 328.501 173.637 328.427 172.497C328.352 171.357 328.538 170.215 328.966 169.181C329.428 169.537 329.825 169.99 330.136 170.516C330.552 171.227 330.803 172.051 331.291 172.705C332.189 173.921 333.748 174.316 335.151 174.244C336.554 174.173 337.913 173.716 339.313 173.563C339.507 173.543 339.705 173.529 339.911 173.522C339.622 174.928 338.938 176.188 337.962 177.11C336.986 178.033 335.772 178.567 334.505 178.633Z" fill="black"/>
<path opacity="0.1" d="M320.37 189.335C319.606 189.376 318.843 189.245 318.123 188.95C317.404 188.655 316.743 188.201 316.177 187.615C315.612 187.03 315.153 186.323 314.828 185.535C314.503 184.748 314.317 183.895 314.281 183.025C314.236 181.988 314.408 180.952 314.784 180.005C315.264 180.369 315.681 180.831 316.013 181.367C316.465 182.093 316.75 182.93 317.279 183.601C318.261 184.844 319.912 185.283 321.399 185.242C322.841 185.208 324.23 184.806 325.663 184.68C325.308 185.981 324.609 187.126 323.662 187.958C322.715 188.791 321.566 189.272 320.37 189.335Z" fill="black"/>
<path opacity="0.1" d="M323.245 202.209C322.568 203.725 321.404 204.886 319.996 205.452C318.587 206.018 317.041 205.947 315.677 205.252C314.313 204.558 313.237 203.293 312.669 201.72C312.102 200.148 312.088 198.387 312.629 196.802C313.109 197.161 313.539 197.598 313.907 198.099C314.46 198.869 314.825 199.741 315.466 200.456C316.663 201.784 318.578 202.332 320.289 202.383C321.277 202.392 322.264 202.334 323.245 202.209Z" fill="black"/>
<path d="M32.8925 210.538C31.6597 207.937 33.0601 204.749 34.6698 202.427C36.2796 200.105 38.2424 197.694 38.2005 194.735C38.1407 190.489 34.1791 187.98 31.0194 185.726C28.6695 184.055 26.502 182.073 24.5624 179.821C23.7502 178.954 23.0787 177.93 22.5786 176.798C21.9234 175.136 21.9443 173.246 21.9802 171.428C22.1179 165.363 22.3812 159.306 22.7701 153.259" stroke="#3F3D56" stroke-width="4" stroke-miterlimit="10"/>
<path d="M16.7499 152.925C16.7949 151.816 17.0846 150.737 17.5924 149.789C18.1001 148.84 18.8095 148.052 19.6552 147.498L20.9598 150.433L20.9209 146.878C21.5432 146.671 22.1912 146.583 22.8389 146.616C23.9892 146.677 25.0977 147.125 26.0242 147.904C26.9507 148.682 27.6536 149.755 28.044 150.988C28.4345 152.221 28.4949 153.558 28.2176 154.83C27.9404 156.102 27.3379 157.252 26.4864 158.134C25.635 159.016 24.5727 159.592 23.434 159.787C22.2953 159.982 21.1312 159.789 20.089 159.231C19.0469 158.674 18.1734 157.777 17.579 156.655C16.9846 155.532 16.6961 154.234 16.7499 152.925Z" fill="white"/>
<path d="M27.1326 197.783C27.7436 199.134 28.7441 200.204 29.9664 200.816C31.1888 201.427 32.5585 201.541 33.8461 201.139C35.1337 200.737 36.2607 199.844 37.0382 198.609C37.8157 197.374 38.1964 195.872 38.1164 194.356C38.0365 192.839 37.5008 191.4 36.5991 190.279C35.6974 189.159 34.4847 188.425 33.1641 188.202C31.8436 187.978 30.4956 188.278 29.3463 189.051C28.1969 189.824 27.316 191.023 26.8514 192.447L30.4898 195.815L26.4803 194.752C26.482 195.807 26.7057 196.846 27.1326 197.783Z" fill="white"/>
<path d="M30.008 184.908C30.7719 184.949 31.5353 184.818 32.2547 184.523C32.9741 184.228 33.6354 183.775 34.2009 183.189C34.7663 182.603 35.2248 181.896 35.5501 181.109C35.8754 180.321 36.0613 179.468 36.097 178.599C36.1423 177.561 35.97 176.526 35.5943 175.579C35.2465 174.694 34.7324 173.906 34.0883 173.271C33.4442 172.636 32.6856 172.17 31.8661 171.905L31.899 174.629L30.5795 171.66C29.0368 171.577 27.5286 172.196 26.3867 173.379C25.2448 174.562 24.5627 176.213 24.4905 177.969C24.4183 179.725 24.9619 181.441 26.0016 182.74C27.0414 184.04 28.4922 184.816 30.0349 184.898L30.008 184.908Z" fill="white"/>
<path d="M15.8732 174.207C16.6461 174.265 17.4215 174.147 18.154 173.861C18.8865 173.574 19.5614 173.124 20.1392 172.537C20.717 171.95 21.1861 171.237 21.5191 170.441C21.8521 169.646 22.0423 168.782 22.0785 167.902C22.1147 167.021 21.9962 166.141 21.73 165.313C21.4638 164.485 21.0552 163.726 20.5281 163.08C20.001 162.434 19.366 161.915 18.6602 161.551C17.9544 161.188 17.1921 160.989 16.4177 160.965C15.3346 160.907 14.2592 161.199 13.3149 161.806L14.3442 165.013L12.2108 162.711C11.076 163.888 10.3971 165.529 10.3228 167.274C10.2963 167.887 10.3467 168.502 10.4724 169.099C10.762 170.503 11.4459 171.761 12.4205 172.683C13.3952 173.605 14.6073 174.14 15.8732 174.207Z" fill="white"/>
<path opacity="0.1" d="M17.5338 154.693C18.8773 154.859 20.1818 155.336 21.5313 155.431C22.8807 155.527 24.3618 155.159 25.2146 153.964C25.6754 153.324 25.9028 152.51 26.2918 151.808C26.6591 151.156 27.1628 150.616 27.7579 150.239C28.1317 151.079 28.3439 152 28.3804 152.94C28.4169 153.881 28.2768 154.819 27.9696 155.693C27.6623 156.567 27.1949 157.357 26.5985 158.009C26.0021 158.662 25.2903 159.162 24.5107 159.477C23.731 159.792 22.9013 159.914 22.0769 159.835C21.2525 159.757 20.4523 159.479 19.7296 159.021C19.0069 158.563 18.3783 157.935 17.8856 157.178C17.393 156.422 17.0476 155.555 16.8726 154.635C17.094 154.648 17.3124 154.665 17.5338 154.693Z" fill="black"/>
<path opacity="0.1" d="M15.8732 174.207C16.8766 174.259 17.8748 174.015 18.7709 173.498C19.6671 172.982 20.4308 172.211 20.988 171.26C21.5452 170.309 21.8771 169.211 21.9513 168.071C22.0255 166.931 21.8396 165.788 21.4116 164.754C20.9503 165.11 20.5532 165.563 20.2417 166.089C19.8258 166.801 19.5745 167.625 19.0867 168.278C18.1891 169.494 16.6302 169.889 15.2269 169.818C13.8236 169.746 12.4652 169.29 11.0649 169.137C10.8704 169.116 10.6729 169.102 10.4664 169.096C10.7557 170.501 11.4403 171.761 12.4162 172.684C13.3921 173.606 14.6059 174.141 15.8732 174.207Z" fill="black"/>
<path opacity="0.1" d="M30.008 184.908C30.7719 184.949 31.5353 184.818 32.2548 184.523C32.9742 184.228 33.6355 183.775 34.2009 183.189C34.7663 182.603 35.2248 181.896 35.5501 181.109C35.8755 180.321 36.0613 179.468 36.097 178.599C36.1423 177.561 35.97 176.526 35.5943 175.579C35.1142 175.943 34.6973 176.404 34.3646 176.941C33.9128 177.666 33.6285 178.504 33.0989 179.174C32.1175 180.417 30.4658 180.856 28.9787 180.816C27.5365 180.782 26.1482 180.38 24.715 180.254C25.0702 181.554 25.7689 182.699 26.7159 183.532C27.663 184.365 28.8125 184.845 30.008 184.908Z" fill="black"/>
<path opacity="0.1" d="M27.1326 197.783C27.8101 199.298 28.9736 200.459 30.3823 201.025C31.791 201.592 33.3371 201.52 34.7008 200.826C36.0644 200.131 37.1413 198.867 37.7086 197.294C38.2759 195.721 38.2903 193.96 37.7486 192.376C37.2693 192.735 36.8388 193.172 36.471 193.673C35.9174 194.442 35.5524 195.314 34.9121 196.029C33.7152 197.357 31.8003 197.905 30.0888 197.956C29.1012 197.966 28.1141 197.908 27.1326 197.783Z" fill="black"/>
<path d="M201.52 178.63C201.525 177.804 201.361 176.989 201.04 176.248C200.719 175.508 200.25 174.864 199.671 174.367C199.599 171.244 197.642 168.694 195.126 168.299C194.931 167.238 194.495 166.254 193.86 165.446C193.226 164.638 192.416 164.034 191.511 163.695C191.291 163.616 191.066 163.556 190.838 163.515H190.772L190.655 163.498H190.557H190.458H190.329H190.251H190.039C187.472 163.498 185.335 165.732 184.896 168.677C183.235 168.241 181.712 168.806 181.44 170.001C181.369 170.318 181.385 170.652 181.484 170.958C181.766 171.884 182.681 172.77 183.923 173.209L184.085 173.263C184.165 173.291 184.246 173.311 184.327 173.332H184.381C183.924 174.439 183.86 175.704 184.2 176.865C184.54 178.025 185.26 178.992 186.209 179.566C186.172 179.589 186.136 179.616 186.101 179.644C185.948 179.805 185.826 179.999 185.742 180.216C185.442 180.816 185.209 181.455 185.048 182.12C184.928 182.688 184.907 183.284 184.749 183.846C184.477 184.868 183.776 185.763 183.696 186.849C183.66 187.333 183.729 187.901 183.426 188.232C183.351 188.306 183.271 188.373 183.187 188.433C182.975 188.598 182.796 188.811 182.66 189.059C182.572 189.264 182.454 189.451 182.31 189.611C182.038 189.846 181.589 189.822 181.455 190.183C181.32 190.544 181.667 190.969 181.586 191.364C181.52 191.684 181.212 191.831 180.988 192.045C180.737 192.355 180.561 192.734 180.479 193.145C180.032 193.243 179.572 193.228 179.13 193.1C178.689 192.973 178.278 192.736 177.927 192.406C178.047 192.757 178.136 193.121 178.19 193.493C177.834 193.06 177.248 192.934 176.814 192.709C176.254 192.418 175.755 191.995 175.348 191.47L176.132 191.347L172.661 185.355L171.637 185.116L172.556 187.122C172.481 187.163 172.415 187.223 172.363 187.297C172.311 187.371 172.275 187.458 172.257 187.551C172.207 187.773 172.195 188.004 172.221 188.232C172.269 188.769 172.348 189.303 172.457 189.829L172.724 191.238C172.746 191.371 172.775 191.501 172.81 191.63C172.463 191.616 172.116 191.66 171.781 191.763C171.093 191.473 170.377 191.28 169.648 191.187C169.487 191.155 169.323 191.165 169.166 191.215C168.988 191.308 168.834 191.451 168.717 191.63C168.119 192.417 167.588 193.268 167.131 194.17C165.267 197.861 162.778 201.082 160.447 204.419C158.837 205.165 157.215 205.873 155.591 206.575L152.099 208.09C151.402 208.393 150.678 208.703 149.935 208.648C149.6 208.624 149.193 208.566 149.005 208.89C148.913 209.05 148.842 209.224 148.793 209.407C148.67 209.407 148.547 209.442 148.433 209.448H148.413C148.191 208.822 148 208.151 147.575 207.695C147.489 207.71 147.408 207.749 147.339 207.808C147.27 207.868 147.216 207.946 147.18 208.035C147.096 208.212 147.045 208.406 146.949 208.57C146.761 208.883 146.435 209.036 146.201 209.302C145.968 209.568 145.821 209.983 145.57 210.242C145.218 210.533 144.806 210.715 144.373 210.769C143.725 210.943 143.101 211.213 142.515 211.573C142.299 211.724 142.068 211.845 141.827 211.934C141.562 211.992 141.29 212.002 141.022 211.965L139.173 211.811C139.008 211.787 138.841 211.795 138.679 211.835C138.489 211.915 138.327 212.064 138.218 212.259C138.11 212.454 138.062 212.685 138.081 212.915C138.103 213.143 138.167 213.363 138.267 213.562C138.367 213.761 138.503 213.935 138.664 214.072C138.985 214.34 139.34 214.55 139.717 214.695C141.324 215.404 142.981 215.956 144.669 216.347V216.772C145.84 217.443 147.132 217.793 148.442 217.794C148.539 217.803 148.636 217.783 148.724 217.736C148.845 217.633 148.929 217.483 148.96 217.314C149.352 215.979 149.601 214.594 149.699 213.19C149.93 213.173 150.156 213.108 150.366 212.996C151.004 212.799 151.635 213.296 152.29 213.378C153.098 213.476 153.849 212.942 154.612 212.612C154.723 212.564 154.834 212.523 154.944 212.482C154.727 212.803 154.47 213.086 154.181 213.323C153.864 213.582 153.508 213.773 153.197 214.042C152.938 214.311 152.661 214.555 152.368 214.774C152.161 214.883 151.949 214.977 151.731 215.053C151.415 215.184 151.114 215.357 150.833 215.567C150.582 215.736 150.369 215.969 150.211 216.248C150.131 216.378 150.082 216.53 150.069 216.688C150.055 216.846 150.077 217.005 150.133 217.15C150.189 217.296 150.277 217.422 150.388 217.518C150.499 217.614 150.629 217.676 150.767 217.699C151.017 217.749 151.272 217.757 151.524 217.722C152.524 217.637 153.52 217.532 154.516 217.43C154.938 217.398 155.357 217.329 155.77 217.225C155.989 217.164 156.204 217.082 156.422 217.018C156.795 216.906 157.177 216.841 157.562 216.824C157.674 216.814 157.787 216.826 157.895 216.861C158.128 216.946 158.293 217.202 158.529 217.27C158.682 217.287 158.837 217.262 158.981 217.198C159.71 217.018 160.454 216.928 161.201 216.929C161.527 216.909 161.91 216.837 162.063 216.493C162.248 216.068 161.937 215.591 161.814 215.131C161.752 214.839 161.718 214.54 161.713 214.239C161.656 213.497 161.468 212.776 161.162 212.118C160.999 211.811 160.862 211.487 160.752 211.151C162.182 210.532 163.55 209.742 164.833 208.795C165.569 208.274 166.329 207.712 167.161 207.521C168.131 207.3 169.13 207.593 170.084 207.906C172.358 208.654 174.594 209.542 176.784 210.565C177.831 211.052 178.878 211.57 179.95 211.927C180.263 212.408 180.641 212.829 181.072 213.173C181.79 213.701 182.666 213.854 183.51 213.929C184.65 214.048 185.795 214.097 186.939 214.076C187.813 214.059 188.713 213.991 189.494 213.538C189.685 213.426 189.865 213.292 190.03 213.136C190.628 213.259 191.242 212.894 191.712 212.428C192.333 211.826 192.782 211.025 192.998 210.129C193.273 208.9 193.061 207.467 193.725 206.462C193.902 206.193 194.132 205.975 194.306 205.703C194.519 205.338 194.624 204.905 194.605 204.467L194.635 204.416C194.785 204.021 194.886 203.603 194.934 203.176C195.013 202.843 195.113 202.516 195.233 202.199C195.571 201.249 195.864 200.279 196.113 199.295C196.286 198.641 196.422 197.976 196.52 197.303C196.592 196.765 196.634 196.223 196.673 195.682C196.721 194.834 196.865 193.998 197.103 193.193C197.694 191.272 198.028 189.261 198.094 187.227C198.094 187.186 198.094 187.149 198.094 187.108C198.962 187 199.764 186.526 200.343 185.781C200.921 185.035 201.234 184.071 201.221 183.077C201.221 182.477 201.111 181.884 200.897 181.337C201.31 180.512 201.525 179.579 201.52 178.63ZM184.599 202.025C184.65 202.233 184.71 202.441 184.77 202.649C184.495 202.339 184.222 202.019 183.944 201.712C184.055 201.75 184.165 201.79 184.273 201.835C184.388 201.886 184.498 201.95 184.602 202.025H184.599ZM183.259 201.004C181.625 199.39 179.734 198.137 178.061 196.577C178.959 197.092 179.857 197.687 180.754 198.26C181.8 198.941 182.857 199.592 183.926 200.214C183.751 200.517 183.527 200.78 183.268 200.99L183.259 201.004ZM183.956 196.938L184.034 196.846C184.034 197.075 184.034 197.289 184.034 197.483C183.887 197.429 183.735 197.374 183.594 197.313C183.723 197.193 183.845 197.063 183.959 196.925L183.956 196.938ZM169.573 201.31C170.246 200.445 170.831 199.495 171.317 198.481C171.964 199.771 173.017 200.701 173.914 201.78C172.472 201.549 171.027 201.368 169.576 201.297L169.573 201.31Z" fill="url(#paint0_linear_306_147)"/>
<path d="M171.907 185.613L172.939 185.852L176.455 191.763L174.902 192.001L171.907 185.613Z" fill="#2F2E41"/>
<path d="M146.907 209.605C147.186 210.653 147.529 211.677 147.934 212.669C149.099 212.392 150.245 212.02 151.363 211.556C151.146 211.172 150.908 210.805 150.651 210.456C150.376 210.108 150.047 209.821 149.681 209.608C149.325 209.431 148.885 209.564 148.505 209.588C147.973 209.611 147.44 209.616 146.907 209.605Z" fill="#FBBEBE"/>
<path d="M149.687 211.185C149.107 210.977 148.751 210.31 148.514 209.666C148.278 209.023 148.086 208.321 147.637 207.848C147.552 207.863 147.471 207.902 147.402 207.962C147.333 208.021 147.278 208.099 147.242 208.188C147.156 208.359 147.105 208.553 147.006 208.716C146.821 209.023 146.491 209.172 146.255 209.435C146.019 209.697 145.872 210.095 145.618 210.357C145.265 210.646 144.853 210.827 144.421 210.882C143.769 211.05 143.139 211.316 142.548 211.672C142.329 211.816 142.096 211.93 141.854 212.012C141.586 212.07 141.313 212.08 141.043 212.043L139.179 211.89C139.013 211.866 138.845 211.875 138.682 211.917C138.492 211.992 138.33 212.138 138.221 212.33C138.113 212.523 138.064 212.751 138.084 212.979C138.108 213.206 138.174 213.425 138.277 213.621C138.38 213.818 138.518 213.987 138.682 214.12C139.006 214.383 139.363 214.59 139.741 214.733C141.365 215.428 143.036 215.971 144.738 216.357V216.776C145.921 217.442 147.222 217.791 148.541 217.797C148.644 217.808 148.747 217.788 148.84 217.739C148.962 217.638 149.047 217.491 149.08 217.324C149.527 215.836 149.788 214.284 149.855 212.714C149.889 212.317 149.863 211.916 149.777 211.529C149.675 211.147 150.022 211.307 149.699 211.158" fill="#2F2E41"/>
<path d="M185.425 203.19C179.899 203.571 174.441 201.726 168.905 201.528C168.218 201.481 167.529 201.531 166.853 201.678C166.148 201.893 165.466 202.195 164.818 202.577C161.853 204.147 158.783 205.447 155.716 206.748L152.197 208.24C151.491 208.536 150.764 208.839 150.013 208.788C149.678 208.764 149.268 208.706 149.077 209.026C148.505 209.99 148.777 211.41 149.154 212.492C149.277 212.833 149.484 213.224 149.813 213.265C150.046 213.247 150.274 213.181 150.486 213.071C151.126 212.877 151.767 213.368 152.425 213.446C153.242 213.545 153.999 213.017 154.768 212.693C156.042 212.159 157.437 212.176 158.777 211.92C161.027 211.495 163.11 210.306 165.061 208.951C165.803 208.437 166.557 207.885 167.406 207.698C168.385 207.48 169.393 207.766 170.354 208.076C172.643 208.814 174.898 209.688 177.107 210.695C178.257 211.263 179.436 211.752 180.638 212.159C183.257 212.944 186.027 212.76 188.549 211.634C189.446 211.236 190.392 210.535 190.443 209.448C190.473 208.829 190.051 208.284 189.77 207.746C189.587 207.405 189.408 207.065 189.21 206.741C188.259 205.161 187.104 203.074 185.425 203.19Z" fill="#2F2E41"/>
<path opacity="0.1" d="M185.425 203.19C179.899 203.571 174.441 201.726 168.905 201.528C168.218 201.481 167.529 201.531 166.853 201.678C166.148 201.893 165.466 202.195 164.818 202.577C161.853 204.147 158.783 205.447 155.716 206.748L152.197 208.24C151.491 208.536 150.764 208.839 150.013 208.788C149.678 208.764 149.268 208.706 149.077 209.026C148.505 209.99 148.777 211.41 149.154 212.492C149.277 212.833 149.484 213.224 149.813 213.265C150.046 213.247 150.274 213.181 150.486 213.071C151.126 212.877 151.767 213.368 152.425 213.446C153.242 213.545 153.999 213.017 154.768 212.693C156.042 212.159 157.437 212.176 158.777 211.92C161.027 211.495 163.11 210.306 165.061 208.951C165.803 208.437 166.557 207.885 167.406 207.698C168.385 207.48 169.393 207.766 170.354 208.076C172.643 208.814 174.898 209.688 177.107 210.695C178.257 211.263 179.436 211.752 180.638 212.159C183.257 212.944 186.027 212.76 188.549 211.634C189.446 211.236 190.392 210.535 190.443 209.448C190.473 208.829 190.051 208.284 189.77 207.746C189.587 207.405 189.408 207.065 189.21 206.741C188.259 205.161 187.104 203.074 185.425 203.19Z" fill="black"/>
<path d="M157.515 209.911C158.38 210.245 159.252 210.554 160.13 210.838C160.623 209.915 161.545 209.275 161.754 208.222C161.766 208.177 161.766 208.128 161.754 208.083C161.731 208.038 161.697 208.002 161.656 207.981C161.025 207.585 160.325 207.352 159.606 207.3C159.038 207.259 158.78 207.933 158.523 208.406C158.433 208.597 157.745 210 157.515 209.911Z" fill="#FBBEBE"/>
<path d="M158.732 209.237C158.474 209.188 158.227 209.078 158.008 208.915C157.789 208.751 157.603 208.537 157.461 208.287C157.338 208.045 157.209 207.718 156.964 207.736C156.719 207.753 156.635 208.059 156.584 208.314C156.418 209.268 156.179 210.204 155.869 211.11C155.556 212.019 155.027 212.81 154.34 213.395C154.02 213.647 153.664 213.837 153.349 214.103C153.088 214.369 152.807 214.61 152.512 214.825C152.303 214.933 152.088 215.024 151.868 215.097C151.546 215.225 151.238 215.396 150.95 215.604C150.697 215.773 150.483 216.006 150.324 216.285C150.248 216.427 150.203 216.588 150.193 216.755C150.184 216.921 150.211 217.087 150.271 217.239C150.335 217.362 150.422 217.469 150.525 217.551C150.628 217.634 150.745 217.691 150.869 217.719C151.121 217.767 151.378 217.774 151.632 217.739C152.64 217.654 153.646 217.552 154.651 217.45C155.077 217.42 155.5 217.354 155.917 217.252C156.138 217.191 156.354 217.109 156.572 217.045C156.949 216.935 157.335 216.872 157.724 216.854C157.837 216.844 157.95 216.857 158.059 216.892C158.292 216.977 158.457 217.232 158.696 217.293C158.851 217.312 159.006 217.288 159.151 217.225C159.887 217.048 160.637 216.959 161.389 216.96C161.718 216.939 162.107 216.868 162.257 216.531C162.446 216.112 162.134 215.642 162.009 215.192C161.947 214.905 161.912 214.61 161.904 214.314C161.847 213.582 161.659 212.872 161.35 212.227C161.093 211.689 160.752 211.096 160.923 210.524C161.014 210.346 161.072 210.147 161.093 209.942C161.051 209.019 159.187 209.36 158.732 209.237Z" fill="#2F2E41"/>
<path d="M177.14 193.104C176.161 192.613 175.376 191.726 174.938 190.615C174.848 190.377 174.77 190.128 174.683 189.887C174.392 189.087 173.941 188.376 173.367 187.81C173.305 187.733 173.23 187.672 173.146 187.631C173.061 187.59 172.97 187.571 172.879 187.575C172.791 187.605 172.711 187.661 172.648 187.737C172.585 187.814 172.541 187.908 172.52 188.01C172.469 188.232 172.455 188.464 172.481 188.691C172.532 189.22 172.612 189.744 172.72 190.261L172.99 191.65C173.024 191.864 173.08 192.072 173.157 192.27C173.272 192.503 173.425 192.71 173.606 192.88C173.851 193.138 174.1 193.387 174.351 193.629C174.49 193.771 174.641 193.897 174.803 194.003C175.068 194.146 175.352 194.241 175.644 194.282C176.742 194.514 177.858 194.848 178.782 195.644C178.782 195.644 178.782 194.715 178.762 194.623C178.75 194.354 178.669 194.094 178.528 193.877C178.181 193.452 177.583 193.326 177.14 193.104Z" fill="#FBBEBE"/>
<path opacity="0.1" d="M177.14 193.104C176.161 192.613 175.376 191.726 174.938 190.615C174.848 190.377 174.77 190.128 174.683 189.887C174.392 189.087 173.941 188.376 173.367 187.81C173.305 187.733 173.23 187.672 173.146 187.631C173.061 187.59 172.97 187.571 172.879 187.575C172.791 187.605 172.711 187.661 172.648 187.737C172.585 187.814 172.541 187.908 172.52 188.01C172.469 188.232 172.455 188.464 172.481 188.691C172.532 189.22 172.612 189.744 172.72 190.261L172.99 191.65C173.024 191.864 173.08 192.072 173.157 192.27C173.272 192.503 173.425 192.71 173.606 192.88C173.851 193.138 174.1 193.387 174.351 193.629C174.49 193.771 174.641 193.897 174.803 194.003C175.068 194.146 175.352 194.241 175.644 194.282C176.742 194.514 177.858 194.848 178.782 195.644C178.782 195.644 178.782 194.715 178.762 194.623C178.75 194.354 178.669 194.094 178.528 193.877C178.181 193.452 177.583 193.326 177.14 193.104Z" fill="black"/>
<path d="M188.39 182.481C189.132 182.481 189.734 181.792 189.734 180.942C189.734 180.092 189.132 179.403 188.39 179.403C187.648 179.403 187.047 180.092 187.047 180.942C187.047 181.792 187.648 182.481 188.39 182.481Z" fill="#2F2E41"/>
<path d="M187.558 180.012C187.198 179.918 186.819 179.98 186.496 180.186C186.341 180.342 186.217 180.535 186.134 180.751C185.832 181.339 185.597 181.968 185.434 182.624C185.314 183.186 185.293 183.771 185.135 184.326C184.859 185.348 184.153 186.216 184.073 187.282C184.037 187.758 184.105 188.32 183.8 188.644C183.724 188.716 183.643 188.781 183.558 188.838C183.345 189 183.165 189.211 183.028 189.458C182.937 189.679 182.81 189.878 182.654 190.047C182.379 190.278 181.927 190.254 181.793 190.612C181.658 190.969 182.005 191.385 181.924 191.773C181.858 192.09 181.547 192.236 181.326 192.454C181.074 192.758 180.897 193.133 180.814 193.54C180.365 193.636 179.902 193.621 179.459 193.494C179.015 193.368 178.601 193.134 178.244 192.808C178.618 193.86 178.627 195.021 178.642 196.155C178.685 196.518 178.6 196.885 178.405 197.177C179.477 197.204 180.518 197.517 181.562 197.8C182.009 197.97 182.492 197.97 182.939 197.8C183.177 197.653 183.391 197.46 183.57 197.228C184.138 196.571 184.734 195.866 184.871 194.95C184.908 194.434 184.916 193.917 184.895 193.401C184.95 192.763 185.066 192.134 185.239 191.524C185.54 190.259 185.74 188.966 185.838 187.66C185.901 186.853 186.511 186.206 186.834 185.484C187.433 184.122 188.061 182.709 188.109 181.183C188.151 180.686 188.001 180.077 187.558 180.012Z" fill="#2F2E41"/>
<path opacity="0.1" d="M187.558 180.012C187.198 179.918 186.819 179.98 186.496 180.186C186.341 180.342 186.217 180.535 186.134 180.751C185.832 181.339 185.597 181.968 185.434 182.624C185.314 183.186 185.293 183.771 185.135 184.326C184.859 185.348 184.153 186.216 184.073 187.282C184.037 187.758 184.105 188.32 183.8 188.644C183.724 188.716 183.643 188.781 183.558 188.838C183.345 189 183.165 189.211 183.028 189.458C182.937 189.679 182.81 189.878 182.654 190.047C182.379 190.278 181.927 190.254 181.793 190.612C181.658 190.969 182.005 191.385 181.924 191.773C181.858 192.09 181.547 192.236 181.326 192.454C181.074 192.758 180.897 193.133 180.814 193.54C180.365 193.636 179.902 193.621 179.459 193.494C179.015 193.368 178.601 193.134 178.244 192.808C178.618 193.86 178.627 195.021 178.642 196.155C178.685 196.518 178.6 196.885 178.405 197.177C179.477 197.204 180.518 197.517 181.562 197.8C182.009 197.97 182.492 197.97 182.939 197.8C183.177 197.653 183.391 197.46 183.57 197.228C184.138 196.571 184.734 195.866 184.871 194.95C184.908 194.434 184.916 193.917 184.895 193.401C184.95 192.763 185.066 192.134 185.239 191.524C185.54 190.259 185.74 188.966 185.838 187.66C185.901 186.853 186.511 186.206 186.834 185.484C187.433 184.122 188.061 182.709 188.109 181.183C188.151 180.686 188.001 180.077 187.558 180.012Z" fill="black"/>
<path d="M186.302 204.515C185.15 203.891 184.309 202.73 183.378 201.736C181.601 199.836 179.429 198.494 177.562 196.714C176.326 195.536 175.219 194.163 173.858 193.176C172.66 192.307 171.302 191.765 169.89 191.593C169.729 191.56 169.563 191.57 169.405 191.62C169.227 191.711 169.072 191.851 168.953 192.028C168.35 192.802 167.814 193.64 167.353 194.531C164.986 199.101 161.626 202.945 158.84 207.198C158.751 207.298 158.698 207.433 158.692 207.575C158.686 207.718 158.727 207.858 158.807 207.967L159.373 209.23C159.69 209.935 160.198 210.759 160.869 210.62C161.176 210.519 161.452 210.319 161.662 210.044L164.205 207.276L166.871 204.375C168.433 202.672 170.022 200.936 171.042 198.763C171.838 200.333 173.25 201.361 174.22 202.802C174.588 203.347 174.887 203.949 175.216 204.528C175.746 205.458 176.344 206.329 176.942 207.198L180.003 211.641C180.39 212.274 180.868 212.827 181.419 213.276C182.143 213.797 183.025 213.936 183.878 214.021C185.027 214.14 186.181 214.188 187.334 214.164C188.214 214.147 189.129 214.083 189.907 213.636C190.685 213.19 191.347 212.274 191.305 211.277C191.257 210.754 191.107 210.25 190.865 209.802C189.785 207.521 188.354 205.614 186.302 204.515Z" fill="#2F2E41"/>
<path d="M189.216 183.189C189.786 183.189 190.248 182.66 190.248 182.007C190.248 181.355 189.786 180.826 189.216 180.826C188.646 180.826 188.184 181.355 188.184 182.007C188.184 182.66 188.646 183.189 189.216 183.189Z" fill="#E8E8F0"/>
<path d="M188.989 181.119C189.222 181.647 189.263 182.259 189.102 182.821C188.943 183.375 188.719 183.901 188.438 184.388C188.196 184.89 187.906 185.36 187.573 185.79C189.168 185.879 190.715 185.167 192.121 184.302C193.255 183.621 194.386 182.753 194.991 181.456C194.811 181.505 194.624 181.51 194.442 181.472C194.26 181.434 194.087 181.353 193.935 181.235C193.63 180.993 193.357 180.704 193.124 180.376L192.325 179.355C192.136 179.131 191.971 178.883 191.831 178.616C191.656 178.254 191.582 177.839 191.619 177.428C191.301 177.807 190.945 178.143 190.559 178.429C189.988 178.854 189.363 179.161 188.785 179.58C188.582 179.73 188.13 179.971 188.247 180.261C188.363 180.55 188.827 180.792 188.989 181.119Z" fill="#FBBEBE"/>
<path opacity="0.1" d="M188.989 181.119C189.222 181.647 189.263 182.259 189.102 182.821C188.943 183.375 188.719 183.901 188.438 184.388C188.196 184.89 187.906 185.36 187.573 185.79C189.168 185.879 190.715 185.167 192.121 184.302C193.255 183.621 194.386 182.753 194.991 181.456C194.811 181.505 194.624 181.51 194.442 181.472C194.26 181.434 194.087 181.353 193.935 181.235C193.63 180.993 193.357 180.704 193.124 180.376L192.325 179.355C192.136 179.131 191.971 178.883 191.831 178.616C191.656 178.254 191.582 177.839 191.619 177.428C191.301 177.807 190.945 178.143 190.559 178.429C189.988 178.854 189.363 179.161 188.785 179.58C188.582 179.73 188.13 179.971 188.247 180.261C188.363 180.55 188.827 180.792 188.989 181.119Z" fill="black"/>
<path d="M189.01 181.296C188.848 181.555 188.762 181.865 188.762 182.183C188.762 182.5 188.848 182.81 189.01 183.07C189.055 183.134 189.225 183.54 189.309 183.543C189.379 183.536 189.445 183.498 189.491 183.437C189.853 183.008 190.191 182.553 190.503 182.075C190.818 181.592 191.274 181.252 191.789 181.115C192.415 181.003 193.016 181.381 193.564 181.742C193.799 181.875 194.004 182.068 194.162 182.307C194.277 182.544 194.346 182.806 194.363 183.077C194.52 184.7 194.58 186.333 194.542 187.966C194.571 189.143 194.503 190.321 194.339 191.483C194.237 192.083 194.084 192.668 194.012 193.275C193.96 193.808 193.939 194.345 193.95 194.882V197.129C193.937 197.541 193.963 197.953 194.027 198.358C194.151 198.842 194.296 199.318 194.461 199.785C194.607 200.341 194.707 200.911 194.761 201.487L195.03 203.813C195.117 204.548 195.179 205.349 194.787 205.938C194.614 206.207 194.381 206.418 194.189 206.683C193.516 207.657 193.74 209.07 193.441 210.279C193.22 211.166 192.767 211.956 192.142 212.543C191.667 213.003 191.05 213.367 190.434 213.224C189.605 213.047 189.105 212.063 188.878 211.134C188.651 210.204 188.579 209.189 188.079 208.41C187.678 207.766 187.059 207.364 186.499 206.905C185.94 206.445 185.389 205.856 185.267 205.08C185.213 204.739 185.246 204.399 185.216 204.058C185.171 203.624 185.025 203.212 184.792 202.864C184.56 202.517 184.249 202.247 183.893 202.083C183.468 201.896 182.942 201.828 182.696 201.402C183.305 200.967 183.749 200.288 183.941 199.499C184.127 198.721 184.227 197.921 184.24 197.115L184.384 194.412C184.447 193.203 184.477 192.004 184.943 190.918C185.153 190.435 185.413 189.978 185.629 189.498C185.917 188.825 186.163 188.128 186.365 187.414C186.703 186.308 187.044 185.198 187.346 184.078C187.467 183.535 187.648 183.012 187.885 182.522C188.163 182.011 188.531 181.398 189.01 181.296Z" fill="#E8E8F0"/>
<path d="M183.735 198.862L184.363 198.886L184.498 197.807C184.515 197.591 184.56 197.379 184.629 197.177C184.734 196.964 184.855 196.762 184.991 196.574C185.611 195.58 185.566 194.259 185.718 193.05C185.922 191.439 186.514 189.927 187.101 188.443L188.321 185.348C188.43 185.093 188.517 184.828 188.582 184.554C188.635 184.253 188.66 183.946 188.657 183.638C188.657 183.162 188.794 181.422 188.803 180.942C188.803 180.765 188.462 180.863 188.39 180.707C188.238 180.366 188.028 181.292 187.741 181.497C187.47 181.732 187.273 182.06 187.178 182.433C186.915 183.213 186.754 184.033 186.508 184.816C186.293 185.618 185.9 186.344 185.368 186.924C185.12 187.176 184.83 187.374 184.593 187.639C183.833 188.494 183.761 189.842 183.735 191.044C183.717 191.79 183.594 198.862 183.735 198.862Z" fill="#2F2E41"/>
<path d="M192.786 180.005C192.187 180.278 191.84 181.027 191.67 181.755C191.499 182.484 191.427 183.254 191.098 183.901C190.332 185.419 188.378 185.862 187.837 187.503C187.699 188.057 187.625 188.63 187.618 189.206C187.523 190.38 187.181 191.518 187.08 192.692C187.027 193.606 187.046 194.523 187.137 195.433L187.822 204.705C187.955 206.071 187.885 207.452 187.615 208.791C188.318 208.906 189.035 208.772 189.668 208.406C190.311 208.066 190.898 207.616 191.514 207.228C192.576 206.547 193.749 206.088 194.677 205.185C194.845 205.036 194.99 204.855 195.105 204.651C195.253 204.261 195.354 203.849 195.404 203.428C195.483 203.1 195.583 202.779 195.703 202.468C196.047 201.533 196.346 200.579 196.601 199.608C196.775 198.964 196.912 198.308 197.011 197.643C197.085 197.115 197.124 196.581 197.166 196.05C197.214 195.214 197.36 194.39 197.6 193.598C198.194 191.709 198.53 189.729 198.596 187.724C198.617 187.435 198.6 187.143 198.546 186.859C198.442 186.515 198.304 186.186 198.133 185.879C197.848 185.269 197.678 184.599 197.408 183.982C196.81 182.586 195.736 181.527 194.614 180.639C194.039 180.206 193.408 179.736 192.786 180.005Z" fill="#2F2E41"/>
<path d="M178.501 195.134C178.015 194.845 177.575 194.465 177.2 194.01C177.029 193.782 176.9 193.527 176.715 193.302C176.276 192.769 175.705 192.399 175.078 192.239C174.456 192.083 173.819 192.014 173.181 192.032C172.756 191.998 172.328 192.057 171.922 192.205C171.718 192.281 171.534 192.415 171.387 192.594C171.241 192.772 171.136 192.99 171.084 193.227C170.991 193.806 171.323 194.368 171.721 194.735C172.091 195.079 172.527 195.321 172.993 195.44C173.373 195.515 173.757 195.566 174.142 195.593C176.404 195.862 178.423 197.262 180.404 198.539C182.146 199.658 183.921 200.705 185.73 201.682C185.802 201.065 185.832 200.444 185.82 199.822C185.82 199.359 185.79 198.651 185.404 198.379C184.955 198.059 184.207 197.987 183.711 197.796C182.544 197.364 181.406 196.84 180.303 196.23C179.677 195.886 179.079 195.522 178.501 195.134Z" fill="#FBBEBE"/>
<path d="M188.39 180.591C190.616 180.591 192.421 178.525 192.421 175.977C192.421 173.429 190.616 171.363 188.39 171.363C186.164 171.363 184.36 173.429 184.36 175.977C184.36 178.525 186.164 180.591 188.39 180.591Z" fill="#FBBEBE"/>
<path d="M193.938 185.235C193.617 185.748 193.354 186.306 193.157 186.894C192.657 188.062 191.876 189.063 191.487 190.299C191.074 191.582 191.089 193.111 190.29 194.122C190.13 194.276 190.009 194.476 189.94 194.701C189.935 194.842 189.921 194.982 189.898 195.12C189.785 195.488 189.255 195.505 189.156 195.879C189.129 195.988 189.156 196.108 189.108 196.22C189.028 196.462 188.749 196.496 188.561 196.642C188.169 196.945 188.262 197.647 187.962 198.082C187.841 198.244 187.684 198.367 187.507 198.437C187.331 198.508 187.141 198.524 186.957 198.484C186.59 198.396 186.237 198.246 185.91 198.038C185.795 197.965 185.667 197.919 185.536 197.905C185.38 197.909 185.228 197.967 185.102 198.072C184.357 198.61 184.007 199.679 184.013 200.687C184.065 201.695 184.275 202.684 184.632 203.609C184.674 203.768 184.745 203.917 184.839 204.045C185.084 204.341 185.515 204.293 185.844 204.126C186.152 203.919 186.481 203.752 186.822 203.629C187.445 203.5 188.055 203.99 188.686 203.949C189.148 203.869 189.583 203.651 189.946 203.316C190.587 202.873 191.161 202.315 191.646 201.665C191.921 201.253 192.124 200.783 192.367 200.343C192.676 199.804 193.016 199.287 193.384 198.798L195.709 195.559C195.942 195.253 196.152 194.923 196.334 194.575C196.544 194.105 196.708 193.609 196.822 193.098C197.071 192.244 197.233 191.361 197.304 190.465C197.316 189.724 197.259 188.983 197.133 188.256C197.055 187.532 196.887 186.824 196.634 186.155C196.116 184.963 194.886 183.976 193.938 185.235Z" fill="#2F2E41"/>
<path d="M202.034 179.226C202.037 178.408 201.87 177.6 201.545 176.87C201.221 176.14 200.748 175.509 200.167 175.027C200.15 173.575 199.679 172.177 198.84 171.083C198.001 169.988 196.848 169.268 195.586 169.051C195.342 167.676 194.68 166.442 193.715 165.568C192.75 164.694 191.545 164.236 190.312 164.274C189.08 164.312 187.898 164.843 186.976 165.775C186.054 166.707 185.451 167.98 185.272 169.368C183.597 168.939 182.065 169.497 181.787 170.672C181.487 171.901 182.684 173.338 184.456 173.883C185.011 174.062 185.589 174.127 186.164 174.077C186.576 174.765 187.11 175.348 187.731 175.788C188.353 176.228 189.048 176.515 189.773 176.631C189.985 177.742 190.466 178.763 191.162 179.579C191.857 180.395 192.738 180.975 193.707 181.252C193.975 181.989 194.391 182.644 194.922 183.165C194.922 183.308 194.901 183.455 194.901 183.604C194.882 184.128 194.956 184.65 195.118 185.14C195.281 185.63 195.529 186.078 195.848 186.456C196.167 186.834 196.549 187.135 196.973 187.341C197.396 187.546 197.852 187.652 198.312 187.652C198.772 187.652 199.228 187.546 199.652 187.341C200.075 187.135 200.458 186.834 200.776 186.456C201.095 186.078 201.343 185.63 201.506 185.14C201.668 184.65 201.742 184.128 201.723 183.604C201.723 183.017 201.612 182.436 201.397 181.902C201.818 181.091 202.038 180.167 202.034 179.226Z" fill="#F86D70"/>
<path opacity="0.1" d="M182.924 170.907C183.202 169.732 184.719 169.174 186.409 169.603C186.606 168.193 187.234 166.907 188.183 165.972C189.132 165.038 190.34 164.515 191.595 164.496C191.711 164.496 191.828 164.496 191.942 164.496C191.457 164.327 190.953 164.242 190.446 164.244C189.191 164.263 187.983 164.786 187.034 165.72C186.085 166.655 185.457 167.941 185.26 169.351C183.585 168.922 182.053 169.48 181.775 170.655C181.475 171.884 182.672 173.321 184.444 173.866C184.773 173.97 185.111 174.036 185.452 174.064C183.77 173.505 182.639 172.109 182.924 170.907Z" fill="black"/>
<path opacity="0.1" d="M196.038 183.843C196.038 183.693 196.038 183.547 196.059 183.4C195.528 182.88 195.112 182.226 194.844 181.49C193.876 181.21 192.995 180.63 192.301 179.813C191.606 178.996 191.124 177.976 190.91 176.866C190.185 176.75 189.489 176.464 188.868 176.024C188.246 175.584 187.713 175.001 187.301 174.312C186.966 174.342 186.629 174.332 186.296 174.281C186.709 174.916 187.23 175.45 187.827 175.854C188.424 176.257 189.085 176.521 189.773 176.631C189.985 177.742 190.466 178.763 191.162 179.579C191.857 180.395 192.738 180.975 193.707 181.252C193.975 181.989 194.391 182.644 194.922 183.165C194.922 183.308 194.901 183.455 194.901 183.604C194.886 184.648 195.234 185.657 195.87 186.409C196.505 187.162 197.377 187.598 198.294 187.622C197.625 187.328 197.05 186.809 196.647 186.134C196.244 185.458 196.031 184.659 196.038 183.843Z" fill="black"/>
<path d="M190.234 177.668C190.508 177.431 190.505 176.903 190.228 176.488C189.952 176.073 189.505 175.929 189.232 176.165C188.958 176.402 188.96 176.93 189.237 177.345C189.514 177.76 189.961 177.904 190.234 177.668Z" fill="#FBBEBE"/>
<path d="M93.8928 200.626L97.8784 197.96C97.3397 196.912 96.651 195.974 95.8407 195.185L88.3245 197.844L94.213 193.904C92.7549 192.996 91.1139 192.535 89.4517 192.567C87.7895 192.599 86.1632 193.123 84.733 194.087C83.3028 195.052 82.1179 196.424 81.2949 198.067C80.4719 199.711 80.0392 201.57 80.0393 203.462C80.0393 209.479 84.327 209.687 89.6141 209.687C94.9012 209.687 99.1889 209.479 99.1889 203.462C99.1921 201.937 98.9116 200.429 98.3661 199.036L93.8928 200.626Z" fill="white"/>
<path opacity="0.1" d="M94.9072 206.476C94.4827 205.992 94.0085 205.567 93.4949 205.212C92.7738 204.664 92.0228 204.106 91.17 203.922C90.422 203.759 89.65 203.898 88.887 203.847C87.5622 203.755 86.3151 203.104 85.3892 202.022C84.8447 201.382 84.4168 200.595 83.7615 200.105C83.0291 199.61 82.165 199.43 81.3259 199.598C81.0827 199.636 80.8419 199.692 80.6048 199.764C80.2298 200.951 80.0384 202.202 80.0393 203.462C80.0393 209.479 84.327 209.687 89.6141 209.687C92.1814 209.687 94.5092 209.639 96.2297 208.9L95.9305 208.291C95.6587 207.638 95.3148 207.029 94.9072 206.476Z" fill="black"/>
</g>
<defs>
<linearGradient id="paint0_linear_306_147" x1="169.803" y1="217.797" x2="169.803" y2="163.44" gradientUnits="userSpaceOnUse">
<stop stop-color="#808080" stop-opacity="0.25"/>
<stop offset="0.54" stop-color="#808080" stop-opacity="0.12"/>
<stop offset="1" stop-color="#808080" stop-opacity="0.1"/>
</linearGradient>
<clipPath id="clip0_306_147">
<rect width="342" height="226" fill="white"/>
</clipPath>
</defs>
</svg>
