<svg width="260" height="206" viewBox="0 0 260 206" fill="none" xmlns="http://www.w3.org/2000/svg">
<g clip-path="url(#clip0_306_78)">
<path d="M148.117 182.243C146.319 179.769 143.886 177.959 140.826 177.282C138.158 176.691 135.414 176.792 132.702 176.812L98.4093 177.072C95.4724 177.094 92.6564 179.595 92.7929 182.591C92.9283 185.563 95.2612 188.135 98.4093 188.111C108.455 188.035 118.5 187.959 128.546 187.882C130.914 187.864 133.284 187.823 135.652 187.83C136.184 187.832 136.714 187.859 137.245 187.865C137.374 187.867 137.467 187.866 137.532 187.863C137.549 187.868 137.562 187.872 137.584 187.878C137.861 187.953 138.145 188.004 138.424 188.075C138.327 188.078 138.605 188.249 138.745 188.307C138.764 188.344 138.805 188.41 138.874 188.512C138.969 188.688 139.252 189.222 139.263 189.206C139.688 190.261 140.038 191.343 140.312 192.446C140.964 194.877 141.108 195.385 141.202 197.666C141.321 200.547 143.7 203.322 146.818 203.185C149.76 203.055 152.562 200.756 152.435 197.666C152.22 192.459 151.29 186.61 148.117 182.243Z" fill="#E6E6E6"/>
<path d="M100.425 194.698C99.7811 190.862 99.1494 187.024 98.4927 183.191C97.8265 179.302 96.4657 175.74 93.386 173.188C92.5631 172.506 91.7098 171.869 90.853 171.234C90.5517 171.011 90.2509 170.788 89.9531 170.56C89.9353 170.546 89.924 170.538 89.9086 170.526C89.8758 170.498 89.8366 170.465 89.7838 170.421C88.5002 169.354 87.2599 168.239 86.0784 167.053C85.0293 166.001 84.0259 164.903 83.0684 163.761C82.8292 163.475 82.593 163.188 82.3599 162.897C82.3197 162.847 82.1038 162.573 81.9615 162.394C81.8292 162.215 81.5873 161.891 81.5467 161.835C81.2744 161.456 81.0069 161.074 80.7442 160.689C78.9553 158.055 77.4063 155.271 76.1152 152.37C75.9871 152.082 75.8621 151.793 75.7402 151.502C75.7074 151.413 75.6651 151.299 75.6089 151.147C75.3487 150.444 75.089 149.742 74.8511 149.03C74.3456 147.519 73.9111 145.985 73.5474 144.43C73.3676 143.661 73.2057 142.889 73.0618 142.113C72.9876 141.714 72.9182 141.314 72.8536 140.914C72.8429 140.847 72.7799 140.415 72.7427 140.17C72.7153 139.925 72.6642 139.49 72.6573 139.423C72.6162 139.019 72.5797 138.615 72.5478 138.21C72.476 137.299 72.4274 136.387 72.4021 135.473C72.3589 133.85 72.3885 132.226 72.4909 130.602C72.5492 129.69 72.6321 128.78 72.7343 127.872C72.7405 127.816 72.7453 127.771 72.7497 127.731C72.7559 127.691 72.7631 127.645 72.7717 127.587C72.8473 127.086 72.9268 126.584 73.0157 126.085C73.3526 124.188 73.7908 122.309 74.3283 120.457C74.5829 119.581 74.8593 118.713 75.1578 117.851C75.2908 117.468 75.428 117.087 75.5695 116.708C75.5602 116.732 75.9844 115.668 75.9901 115.632C77.6732 111.724 80.4263 108.161 80.4301 103.722C80.4326 100.716 77.845 97.8367 74.8136 97.9756C73.3022 98.0315 71.8719 98.6618 70.8242 99.7337C69.7764 100.806 69.1931 102.235 69.1971 103.722C69.1971 103.789 69.1967 103.847 69.1966 103.903C69.1683 103.996 69.1446 104.074 69.1234 104.143C68.7951 104.844 68.393 105.51 68.0327 106.194C67.0462 108.065 66.2041 109.997 65.4041 111.958C64.0946 115.15 63.0922 118.457 62.4101 121.833C60.9275 129.231 60.8124 136.831 62.0704 144.269C64.248 157.313 71.4294 169.799 81.4132 178.192C82.2797 178.92 83.1672 179.624 84.0631 180.314C84.4338 180.599 84.8077 180.879 85.1834 181.158C85.3609 181.289 86.0966 181.859 85.773 181.583C86.4689 182.167 86.7618 182.46 86.9406 182.89C86.9665 182.989 87.0018 183.124 87.0496 183.308C87.1756 183.793 87.2952 184.276 87.3946 184.768C88.2636 189.063 88.8677 193.43 89.5935 197.753C90.0925 200.724 93.8136 202.657 96.5026 201.767C99.6324 200.73 100.96 197.881 100.425 194.698Z" fill="#E6E6E6"/>
<path d="M148.685 205.839C146.327 205.845 144.062 204.931 142.388 203.298C140.713 201.665 139.767 199.447 139.755 197.129V190.833C133.047 191.571 110.078 191.4 103.494 190.36V196.877C103.476 199.193 102.527 201.408 100.855 203.04C99.1818 204.671 96.9204 205.587 94.5635 205.587C92.2066 205.587 89.9452 204.671 88.2724 203.04C86.5995 201.408 85.6509 199.193 85.6332 196.877V184.082C76.7155 179.213 69.2814 172.095 64.0979 163.46C58.9145 154.826 56.1697 144.989 56.1466 134.964C56.1466 117.775 64.0739 101.739 77.896 90.9701C86.883 83.9443 97.8021 79.7189 109.251 78.8368C110.805 78.7171 112.368 78.6564 113.898 78.6564C119.287 78.6564 143.602 79.4745 149.703 81.1993L163.613 67.635C163.818 67.4329 164.079 67.2952 164.363 67.2395C164.648 67.1838 164.943 67.2126 165.21 67.3222C165.48 67.4277 165.711 67.6108 165.873 67.8476C166.035 68.0844 166.12 68.3638 166.118 68.6491V70.8058L168.826 68.1696C169.03 67.9673 169.291 67.8294 169.576 67.7736C169.86 67.7178 170.155 67.7466 170.422 67.8563C170.692 67.9617 170.923 68.1449 171.086 68.3818C171.248 68.6187 171.333 68.8983 171.33 69.1838V93.2841C178.311 99.468 183.631 107.248 186.819 115.936C190.008 124.623 190.966 133.95 189.61 143.088C188.254 152.227 184.624 160.896 179.043 168.326C173.462 175.757 166.102 181.72 157.616 185.687V197.129C157.604 199.447 156.657 201.665 154.983 203.298C153.309 204.931 151.044 205.845 148.685 205.839ZM140.457 190.05V197.129C140.475 199.262 141.35 201.301 142.891 202.804C144.432 204.306 146.515 205.149 148.685 205.149C150.856 205.149 152.939 204.306 154.48 202.804C156.021 201.301 156.896 199.262 156.914 197.129V185.251L157.114 185.157C166.637 180.717 174.721 173.77 180.468 165.087C187.793 154.008 190.839 140.717 189.055 127.622C187.271 114.527 180.776 102.492 170.745 93.6947L170.628 93.5918V69.1837C170.631 69.0354 170.587 68.8899 170.503 68.7669C170.419 68.6438 170.298 68.549 170.157 68.4953C170.018 68.4366 169.863 68.4207 169.714 68.4498C169.565 68.479 169.428 68.5517 169.321 68.6586L165.416 72.4602V68.6491C165.418 68.5008 165.374 68.3553 165.29 68.2322C165.206 68.1092 165.085 68.0144 164.945 67.9607C164.804 67.9021 164.649 67.8864 164.5 67.9157C164.351 67.945 164.214 68.018 164.107 68.1251L149.899 81.9798L149.697 81.9177C144.026 80.1734 119.328 79.3463 113.898 79.3463C112.387 79.3463 110.842 79.4063 109.306 79.5247C97.9964 80.396 87.21 84.57 78.3323 91.5106C64.6791 102.148 56.8486 117.986 56.8486 134.964C56.8719 144.9 59.6022 154.649 64.7556 163.197C69.909 171.746 77.2977 178.783 86.1542 183.577L86.3353 183.675V196.877C86.3534 199.01 87.2282 201.049 88.7694 202.551C90.3105 204.053 92.393 204.895 94.5635 204.895C96.7339 204.895 98.8165 204.053 100.358 202.551C101.899 201.049 102.774 199.01 102.792 196.877V189.534L103.208 189.611C109.125 190.705 134.039 190.877 140.061 190.101L140.457 190.05Z" fill="#3F3D56"/>
<path d="M101.096 41.0905L62.2229 52.5707C60.9865 52.9373 59.9487 53.7712 59.3376 54.8893C58.7264 56.0073 58.5919 57.318 58.9636 58.5335C59.3353 59.7489 60.1827 60.7697 61.3198 61.3715C62.4568 61.9733 63.7905 62.107 65.0277 61.7431L99.046 51.6945L99.7587 51.484C99.9029 47.8753 100.899 44.3489 102.669 41.1836C102.447 41.0854 102.209 41.0248 101.967 41.0042C101.674 40.9763 101.378 41.0057 101.096 41.0905Z" fill="white"/>
<path d="M64.3554 64.1907C63.8394 64.1894 63.3368 64.0288 62.9187 63.7317C62.5006 63.4345 62.1881 63.0156 62.0253 62.5344L59.5945 55.3262C59.493 55.0252 59.4528 54.7075 59.4762 54.3912C59.4997 54.0749 59.5863 53.7662 59.7311 53.4828C59.8759 53.1995 60.0762 52.9469 60.3203 52.7396C60.5645 52.5322 60.8479 52.3742 61.1542 52.2745L92.7931 41.9706C93.0994 41.8708 93.4226 41.8313 93.7445 41.8543C94.0663 41.8773 94.3804 41.9623 94.6687 42.1046C94.9571 42.2469 95.2141 42.4436 95.4251 42.6835C95.6362 42.9234 95.797 43.2018 95.8985 43.5028L98.3293 50.711C98.5316 51.3039 98.4911 51.9509 98.2163 52.5149C97.9416 53.0789 97.4542 53.5156 96.8574 53.7326C96.8282 53.7434 96.7987 53.7536 96.7689 53.7631L65.1308 64.0667C64.8808 64.1486 64.619 64.1904 64.3554 64.1907Z" fill="#2F2E41"/>
<path d="M123.608 28.2891C117.222 28.2916 111.088 30.7356 106.504 35.1041C101.919 39.4725 99.2449 45.4224 99.046 51.6945C99.039 51.9394 99.0355 52.1878 99.0355 52.4362C99.0355 57.212 100.477 61.8806 103.177 65.8515C105.877 69.8225 109.714 72.9174 114.204 74.7451C118.694 76.5727 123.635 77.0509 128.401 76.1192C133.168 75.1875 137.546 72.8877 140.983 69.5107C144.419 66.1337 146.76 61.8311 147.708 57.147C148.656 52.4629 148.169 47.6078 146.309 43.1955C144.45 38.7832 141.3 35.0119 137.259 32.3586C133.218 29.7053 128.468 28.2891 123.608 28.2891ZM123.608 75.8933C117.279 75.8868 111.211 73.4133 106.736 69.0157C102.261 64.618 99.7442 58.6554 99.7376 52.4362C99.7376 52.1153 99.7446 51.798 99.7587 51.4841C99.9487 46.8892 101.509 42.4505 104.246 38.7201C106.982 34.9897 110.774 32.132 115.15 30.5025C119.526 28.8729 124.293 28.5434 128.858 29.5548C133.423 30.5662 137.585 32.874 140.826 36.1912C144.067 39.5084 146.245 43.6887 147.087 48.2122C147.93 52.7357 147.401 57.4028 145.567 61.6333C143.732 65.8638 140.672 69.471 136.768 72.0064C132.864 74.5417 128.287 75.8934 123.608 75.8933Z" fill="#3F3D56"/>
<path d="M144.319 52.4362C144.319 57.834 142.136 63.0107 138.252 66.8275C134.368 70.6444 129.101 72.7886 123.608 72.7886C118.115 72.7886 112.847 70.6444 108.963 66.8275C105.079 63.0107 102.897 57.834 102.897 52.4362C102.897 51.7911 102.928 51.1564 102.988 50.5285C103.487 45.3191 106.009 40.4987 110.029 37.0682C114.05 33.6377 119.261 31.8607 124.579 32.1062C129.898 32.3517 134.916 34.6008 138.592 38.3865C142.268 42.1722 144.318 47.2037 144.319 52.4362Z" fill="#E6E6E6"/>
<path d="M129.775 53.7884C129.273 53.1398 128.613 52.626 127.855 52.2947C126.921 51.9077 125.956 51.5962 124.97 51.3633V45.8233C126.485 46.0479 127.907 46.6848 129.073 47.6619L130.218 45.2645C129.559 44.6883 128.804 44.2295 127.985 43.9088C127.077 43.5476 126.125 43.3075 125.152 43.1947V40.3868H122.502V43.2223C121.479 43.3353 120.491 43.661 119.606 44.1779C118.806 44.6431 118.133 45.2917 117.644 46.0682C117.177 46.8261 116.935 47.6971 116.945 48.583C116.9 49.5429 117.183 50.4903 117.749 51.2736C118.27 51.9519 118.959 52.4885 119.75 52.8329C120.699 53.2313 121.681 53.5509 122.685 53.7884V59.0973C120.896 58.9647 119.192 58.2965 117.802 57.1828L116.657 59.5837C117.435 60.2152 118.319 60.7079 119.269 61.0394C120.31 61.4056 121.398 61.6285 122.502 61.7017V64.4855H125.152V61.65C126.624 61.4919 128.005 60.8699 129.087 59.8769C129.564 59.4276 129.941 58.886 130.193 58.2862C130.446 57.6865 130.569 57.0417 130.555 56.3928C130.599 55.4634 130.324 54.5464 129.775 53.7884ZM122.685 50.7769C122.039 50.5845 121.439 50.2679 120.919 49.8455C120.713 49.6654 120.55 49.4427 120.442 49.1934C120.334 48.9441 120.283 48.6744 120.294 48.4036C120.275 47.7892 120.505 47.1924 120.933 46.7444C121.408 46.2743 122.02 45.9618 122.685 45.8509V50.7769ZM126.634 58.1176C126.186 58.5689 125.603 58.8675 124.97 58.9696V54.4024C125.575 54.5619 126.141 54.84 126.634 55.22C126.82 55.3768 126.969 55.573 127.068 55.7939C127.167 56.0149 127.214 56.255 127.206 56.4963C127.23 57.0883 127.026 57.6675 126.634 58.1176Z" fill="white"/>
<path d="M65.4837 93.4047C64.941 93.4039 64.4138 93.2271 63.9838 92.9018C63.5538 92.5764 63.2451 92.1208 63.1054 91.6055L61.782 86.683C61.6163 86.0642 61.7072 85.4062 62.0346 84.8532C62.3619 84.3002 62.8992 83.8974 63.5284 83.7331L105.28 72.8912C105.91 72.7297 106.58 72.8199 107.142 73.1422C107.705 73.4645 108.115 73.9926 108.282 74.611L109.403 78.7815L109.193 78.7975C98.485 79.6157 88.2395 83.4308 79.6687 89.7916L79.6078 89.8206L66.107 93.3253C65.9036 93.378 65.6941 93.4047 65.4837 93.4047Z" fill="#2F2E41"/>
<path d="M58.5687 117.72C53.671 117.008 48.9869 115.268 44.8356 112.617C42.779 111.304 40.8751 109.774 39.1581 108.054C37.4633 106.355 35.842 104.424 35.0026 102.162C34.195 100.069 34.2366 97.7511 35.1189 95.6874C35.9891 93.6364 37.6515 92.0081 39.7415 91.1597C41.8441 90.3357 44.3843 90.2476 46.4306 91.15C47.4057 91.5699 48.2494 92.2374 48.8753 93.0837C49.1662 93.4739 49.3816 93.9134 49.5107 94.3801C49.6306 94.8031 49.6415 95.2487 49.5425 95.6769C49.4225 96.1043 49.2109 96.5016 48.9219 96.8421C48.6328 97.1826 48.2731 97.4584 47.8667 97.6511C46.9723 98.102 46.0032 98.3924 45.005 98.5087C44.001 98.6432 42.5588 98.7657 41.7517 97.9737C41.5855 97.817 41.4549 97.6277 41.3682 97.418C41.3075 97.2575 41.2867 97.0851 41.3076 96.915C41.2959 96.99 41.3563 96.7521 41.3529 96.7616C41.3401 96.7968 41.2848 96.8825 41.3634 96.7508C41.388 96.7074 41.4153 96.6656 41.4453 96.6256C41.4186 96.6595 41.36 96.716 41.4646 96.619C41.5511 96.526 41.6622 96.4586 41.7855 96.4243C41.8341 96.4104 41.8834 96.3993 41.9322 96.3862C42.056 96.353 41.8087 96.388 41.9354 96.384C41.9843 96.3825 42.0338 96.3837 42.0825 96.3815C42.2068 96.376 41.9599 96.3482 42.079 96.3776C42.1252 96.3891 42.171 96.4002 42.2166 96.4143C42.3156 96.445 42.1465 96.343 42.2136 96.4193C42.2922 96.5088 42.131 96.3323 42.2204 96.4189C42.2649 96.4618 42.3068 96.5073 42.3459 96.5549C42.5009 96.7053 42.71 96.7896 42.9278 96.7896C43.1456 96.7896 43.3546 96.7053 43.5096 96.5549C43.6593 96.4009 43.7429 96.1962 43.7429 95.9832C43.7429 95.7702 43.6593 95.5654 43.5096 95.4114C42.6982 94.423 41.0955 94.6672 40.2748 95.5026C39.228 96.568 39.6425 98.2564 40.6607 99.186C41.8134 100.238 43.446 100.312 44.9287 100.135C46.1818 100.017 47.4029 99.678 48.5335 99.134C49.6568 98.5916 50.5354 97.6588 50.9991 96.5164C51.2085 95.9067 51.2837 95.2603 51.2197 94.6199C51.1558 93.9795 50.9542 93.3597 50.6283 92.8016C49.3192 90.383 46.6085 89.1431 43.9291 88.9283C42.5496 88.8221 41.1624 88.9858 39.8477 89.4099C38.5331 89.834 37.317 90.5102 36.27 91.3991C34.2519 93.1845 33.0092 95.6638 32.7989 98.3242C32.5651 101.082 33.6541 103.761 35.2418 105.987C36.904 108.249 38.8876 110.265 41.132 111.973C45.5196 115.416 50.6664 117.801 56.1603 118.938C56.8138 119.071 57.4707 119.184 58.1312 119.279C58.3414 119.329 58.5631 119.298 58.7511 119.193C58.9392 119.089 59.0795 118.917 59.1434 118.714C59.1998 118.507 59.1712 118.287 59.0636 118.101C58.9561 117.915 58.7783 117.778 58.5687 117.72Z" fill="#3F3D56"/>
<path d="M136.984 82.5766C129.808 82.477 122.655 82.656 115.524 83.1134C113.087 83.2698 110.978 84.1164 110.978 85.5392C110.978 86.7288 113.07 88.1224 115.524 87.9649C122.651 87.5076 129.805 87.3286 136.984 87.4281C142.837 87.5092 142.834 82.6577 136.984 82.5766Z" fill="#CCCCCC"/>
<path d="M126.378 87.1878C125.602 87.1878 107.385 87.1593 107.385 84.6865C107.385 82.2138 125.602 82.1854 126.378 82.1854C127.153 82.1854 145.371 82.2138 145.371 84.6865C145.371 87.1593 127.153 87.1878 126.378 87.1878ZM108.097 84.6865C108.596 85.4362 115.292 86.4978 126.378 86.4978C137.463 86.4978 144.16 85.4362 144.658 84.6865C144.16 83.9369 137.463 82.8753 126.378 82.8753C115.292 82.8753 108.596 83.9369 108.097 84.6865Z" fill="#3F3D56"/>
<path d="M184.177 152.195C188.209 152.085 193.228 151.947 197.095 149.172C198.246 148.311 199.192 147.214 199.867 145.957C200.541 144.699 200.927 143.312 200.998 141.892C201.077 139.7 200.272 137.787 198.729 136.506C196.71 134.829 193.761 134.436 190.583 135.353L193.875 111.707L191.458 111.382L187.587 139.181L189.606 138.271C191.946 137.216 195.158 136.679 197.154 138.337C197.644 138.77 198.026 139.309 198.27 139.911C198.514 140.513 198.613 141.162 198.56 141.808C198.501 142.864 198.211 143.896 197.71 144.833C197.209 145.769 196.508 146.589 195.656 147.236C192.647 149.395 188.646 149.674 184.109 149.799L184.177 152.195Z" fill="#3F3D56"/>
<path d="M177.494 113.747H164.354V116.144H177.494V113.747Z" fill="#3F3D56"/>
<path d="M71.4296 104.432C70.8448 104.43 70.2797 104.223 69.8356 103.849C69.3915 103.475 69.0974 102.958 69.0061 102.39L68.2041 97.3603C68.1039 96.7277 68.2632 96.0818 68.647 95.5645C69.0308 95.0472 69.6078 94.7006 70.2513 94.6008L112.913 88.032C113.556 87.9335 114.214 88.0901 114.74 88.4673C115.266 88.8444 115.619 89.4114 115.721 90.0438L116.523 95.0739C116.623 95.7065 116.463 96.3524 116.08 96.8697C115.696 97.387 115.119 97.7336 114.475 97.8334L71.8141 104.402C71.6869 104.422 71.5584 104.432 71.4296 104.432Z" fill="#2F2E41"/>
<path d="M53.7742 45.4843C63.6615 45.4843 71.6767 37.6077 71.6767 27.8914C71.6767 18.1752 63.6615 10.2986 53.7742 10.2986C43.8868 10.2986 35.8716 18.1752 35.8716 27.8914C35.8716 37.6077 43.8868 45.4843 53.7742 45.4843Z" fill="white"/>
<path d="M63.9104 32.4435C64.4825 32.2468 65.0052 31.932 65.4433 31.5203C65.7331 31.2268 65.9541 30.8745 66.0908 30.4882C66.2275 30.1019 66.2767 29.6909 66.2347 29.284C66.2104 28.9939 66.1181 28.7134 65.9652 28.4642C65.8122 28.215 65.6027 28.0039 65.3529 27.8475C64.705 27.456 63.8489 27.4708 62.9845 27.8645L62.8848 20.9972L62.1828 21.007L62.3001 29.0803L62.8345 28.7359C63.4541 28.3371 64.3445 28.048 64.9851 28.4352C65.1435 28.5377 65.2758 28.6748 65.3715 28.8357C65.4673 28.9966 65.524 29.177 65.5372 29.363C65.5668 29.6661 65.5295 29.972 65.428 30.2597C65.3264 30.5474 65.163 30.8103 64.9488 31.0304C64.1878 31.7724 63.0614 32.0211 61.7758 32.2485L61.9002 32.9274C62.5836 32.8254 63.2563 32.6635 63.9104 32.4435Z" fill="#2F2E41"/>
<path d="M70.1138 20.5151L66.3752 21.0715L66.4804 21.7536L70.2189 21.1972L70.1138 20.5151Z" fill="#2F2E41"/>
<path d="M58.3133 22.2709L54.5747 22.8273L54.6798 23.5094L58.4184 22.953L58.3133 22.2709Z" fill="#2F2E41"/>
<path d="M65.6051 104.124C64.9613 104.123 64.3331 103.929 63.8042 103.568C63.2753 103.207 62.8707 102.697 62.6443 102.104L50.301 69.62C48.7923 65.636 48.9534 61.2266 50.749 57.3592C52.5445 53.4918 55.8278 50.4822 59.8786 48.9908L69.9152 45.3079C70.3033 45.1646 70.7164 45.098 71.1307 45.1122C71.5451 45.1263 71.9525 45.2208 72.3296 45.3903C72.7057 45.5555 73.0446 45.7926 73.3264 46.0879C73.6082 46.3832 73.8272 46.7308 73.9708 47.1102L96.8357 89.5344C96.9842 89.917 97.0542 90.3246 97.0417 90.7338C97.0292 91.1431 96.9345 91.5458 96.763 91.919C96.5915 92.2921 96.3466 92.6282 96.0424 92.908C95.7382 93.1877 95.3807 93.4056 94.9905 93.5491L66.7092 103.927C66.3561 104.057 65.9822 104.124 65.6051 104.124Z" fill="#2F2E41"/>
<path d="M66.87 46.4252L89.5568 76.2384L74.2056 46.7381C74.0788 46.3939 73.8843 46.0776 73.6331 45.8073C73.3819 45.537 73.079 45.318 72.7416 45.1628C72.4043 45.0075 72.0391 44.9191 71.667 44.9026C71.2948 44.8861 70.923 44.9418 70.5728 45.0665L66.87 46.4252Z" fill="#E6E6E6"/>
<path d="M102.792 69.0665L62.2844 66.5024C61.6459 66.462 61.0218 66.2984 60.4476 66.021C59.8735 65.7435 59.3606 65.3577 58.9382 64.8854C58.5158 64.4132 58.1921 63.8638 57.9858 63.2686C57.7795 62.6735 57.6944 62.0442 57.7355 61.4168C57.7767 60.7893 57.9431 60.176 58.2255 59.6118C58.5078 59.0475 58.9005 58.5435 59.381 58.1284C59.8616 57.7133 60.4207 57.3953 61.0263 57.1925C61.6319 56.9898 62.2722 56.9062 62.9107 56.9466L103.418 59.5105C103.717 59.5294 104.009 59.606 104.278 59.7359C104.547 59.8659 104.787 60.0466 104.985 60.2677C105.183 60.4889 105.335 60.7462 105.431 61.0249C105.528 61.3036 105.568 61.5983 105.548 61.8921L105.215 66.9731C105.176 67.5665 104.899 68.1205 104.445 68.5131C103.99 68.9056 103.396 69.1047 102.792 69.0665Z" fill="white"/>
<path d="M91.9676 70.7103C91.9141 70.7103 91.8605 70.7086 91.8067 70.7053L58.5443 68.5998C58.2223 68.5795 57.9075 68.497 57.6179 68.3571C57.3283 68.2172 57.0696 68.0226 56.8566 67.7844C56.6435 67.5462 56.4803 67.2692 56.3763 66.969C56.2722 66.6688 56.2293 66.3515 56.2501 66.035L56.8189 57.3565C56.8396 57.0401 56.9236 56.7307 57.066 56.4462C57.2084 56.1616 57.4065 55.9074 57.6489 55.6981C57.8912 55.4887 58.1732 55.3284 58.4787 55.2261C58.7841 55.1239 59.1071 55.0818 59.4291 55.1022L92.6914 57.2074C93.3415 57.2493 93.9481 57.5428 94.3782 58.0237C94.8082 58.5045 95.0267 59.1333 94.9855 59.7722L94.4168 68.4509C94.3855 68.9159 94.2183 69.3622 93.9352 69.7361C93.6521 70.11 93.2652 70.3957 92.821 70.5589C92.5481 70.6592 92.259 70.7105 91.9676 70.7103Z" fill="#2F2E41"/>
<path d="M53.569 16.1925C55.9241 14.202 59.1583 15.9826 61.8592 15.6709C64.4432 15.3727 66.4836 13.0949 67.0048 10.6751C67.6129 7.85198 66.1218 5.02361 63.9239 3.26344C61.5167 1.33562 58.3242 0.782184 55.299 1.13885C51.8316 1.54762 48.6605 3.13592 45.8151 5.05706C43.0687 6.85398 40.543 8.95716 38.2885 11.3246C36.2696 13.5157 34.5592 16.1274 34.013 19.0758C33.5166 21.7552 33.8956 24.7244 35.5075 26.9943C36.3622 28.1577 37.5077 29.085 38.8332 29.6868C40.2154 30.3537 41.6898 30.8306 43.0288 31.5846C45.0535 32.7248 47.0213 35.089 46.3871 37.5493C46.2511 38.0867 45.9828 38.5831 45.6057 38.9946C45.1526 39.4889 44.3354 38.8358 44.7896 38.3402C45.5875 37.4699 45.556 36.3092 45.1309 35.27C44.6253 34.0991 43.73 33.1317 42.5917 32.5262C41.19 31.7386 39.6425 31.2525 38.2059 30.5352C36.8308 29.8799 35.6372 28.9079 34.7267 27.7018C33.0073 25.3537 32.4929 22.2977 32.8829 19.4708C33.3049 16.4115 34.9044 13.6316 36.9095 11.302C39.0915 8.76676 41.7719 6.62075 44.5101 4.69284C47.4483 2.62419 50.6944 0.87528 54.2864 0.242728C57.4001 -0.305596 60.7751 0.031987 63.4979 1.69946C66.0394 3.25594 67.9884 5.93339 68.1822 8.92518C68.2518 10.2864 67.951 11.6413 67.3108 12.8504C66.6706 14.0595 65.7142 15.0791 64.5398 15.8043C63.3349 16.5129 61.9339 16.8319 60.5346 16.7162C59.0386 16.6221 57.5412 16.1719 56.0357 16.2969C55.3545 16.3375 54.7052 16.5953 54.1865 17.0311C53.6719 17.466 53.0586 16.6238 53.569 16.1925Z" fill="#2F2E41"/>
<path d="M259.582 206H0.417979C0.307337 206 0.201339 205.956 0.123216 205.879C0.0450934 205.802 0.0012207 205.698 0.0012207 205.589C0.0012207 205.481 0.0450934 205.376 0.123216 205.299C0.201339 205.222 0.307337 205.179 0.417979 205.179H259.582C259.693 205.179 259.799 205.222 259.878 205.299C259.956 205.376 260 205.48 260 205.589C260 205.698 259.956 205.803 259.878 205.88C259.799 205.957 259.693 206 259.582 206Z" fill="#3F3D56"/>
</g>
<defs>
<clipPath id="clip0_306_78">
<rect width="260" height="206" fill="white"/>
</clipPath>
</defs>
</svg>
